<svg width="16" height="16" viewBox="0 0 16 16" fill="none" xmlns="http://www.w3.org/2000/svg">
<path d="M11.682 9.93453C11.5503 9.93455 11.4214 9.8955 11.3118 9.8223C11.2023 9.74911 11.1168 9.64506 11.0664 9.52332C11.0159 9.40158 11.0027 9.26761 11.0284 9.13836C11.0541 9.0091 11.1175 8.89036 11.2107 8.79716C11.3038 8.70396 11.4226 8.64048 11.5518 8.61474C11.681 8.58901 11.815 8.60218 11.9368 8.65259C12.0585 8.703 12.1626 8.78838 12.2359 8.89794C12.3091 9.0075 12.3482 9.13631 12.3482 9.2681C12.348 9.44474 12.2778 9.6141 12.1529 9.73903C12.028 9.86396 11.8587 9.93426 11.682 9.93453ZM4.31796 9.93453C4.18618 9.93455 4.05735 9.8955 3.94776 9.8223C3.83817 9.74911 3.75275 9.64506 3.7023 9.52332C3.65185 9.40158 3.63863 9.26761 3.66431 9.13836C3.69 9.0091 3.75343 8.89036 3.8466 8.79716C3.93977 8.70396 4.05848 8.64048 4.18772 8.61474C4.31697 8.58901 4.45094 8.60218 4.5727 8.65259C4.69446 8.703 4.79854 8.78838 4.87177 8.89794C4.94501 9.0075 4.98411 9.13631 4.98413 9.2681C4.98397 9.44475 4.91374 9.61413 4.78885 9.73906C4.66396 9.864 4.49461 9.93429 4.31796 9.93453ZM11.921 5.92125L13.2524 3.61511C13.2706 3.58361 13.2825 3.54883 13.2872 3.51276C13.292 3.47669 13.2896 3.44003 13.2802 3.40488C13.2708 3.36973 13.2546 3.33677 13.2325 3.30789C13.2103 3.27901 13.1827 3.25478 13.1512 3.23657C13.1197 3.21836 13.085 3.20653 13.0489 3.20176C13.0128 3.19699 12.9762 3.19937 12.941 3.20877C12.9059 3.21816 12.8729 3.23439 12.844 3.25652C12.8152 3.27866 12.7909 3.30626 12.7727 3.33776L11.4244 5.67303C10.3934 5.20246 9.23542 4.94044 7.99988 4.94044C6.76433 4.94044 5.60649 5.20284 4.57546 5.67303L3.22729 3.33776C3.20911 3.30625 3.1849 3.27864 3.15604 3.25649C3.12718 3.23434 3.09424 3.21809 3.0591 3.20867C3.02396 3.19925 2.98731 3.19684 2.95124 3.20158C2.91517 3.20633 2.88039 3.21813 2.84888 3.23632C2.81738 3.2545 2.78976 3.27872 2.76761 3.30758C2.74546 3.33643 2.72921 3.36937 2.71979 3.40451C2.71037 3.43965 2.70796 3.4763 2.71271 3.51237C2.71745 3.54844 2.72925 3.58322 2.74744 3.61473L4.07904 5.92125C1.79262 7.16485 0.228754 9.47953 0 12.2143H16C15.771 9.47953 14.2073 7.16485 11.921 5.92125Z" fill="#3DDC84"/>
</svg>
