<svg width="20" height="20" viewBox="0 0 20 20" fill="none" xmlns="http://www.w3.org/2000/svg">
<path d="M9.95421 1.00159C9.95421 1.00159 15.247 0.764318 18.0526 6.08415H9.50339C9.50339 6.08415 7.89075 6.0326 6.51211 7.99052C6.11611 8.81198 5.69065 9.65798 6.16847 11.3263C5.48038 10.1603 2.5161 4.9976 2.5161 4.9976C2.5161 4.9976 4.60574 1.21186 9.95339 1.00159H9.95421Z" fill="#EF3F36"/>
<path d="M17.8178 14.4395C17.8178 14.4395 15.3665 19.1285 9.3373 18.897L13.6287 11.5169C13.6287 11.5169 14.4853 10.1506 13.4749 7.98484C12.9602 7.23211 12.4358 6.44584 10.7478 6.02611C12.106 6.01383 18.0788 6.02611 18.0788 6.02611C18.0788 6.02611 20.3165 9.71857 17.8178 14.4395Z" fill="#FCD900"/>
<path d="M2.17247 14.4837C2.17247 14.4837 -0.687904 10.0401 2.52674 4.97882L6.81075 12.3441C6.81075 12.3441 7.57493 13.762 9.96321 13.9739C10.8739 13.9077 11.8213 13.8512 13.0314 12.6125C12.3646 13.7841 9.37085 18.9043 9.37085 18.9043C9.37085 18.9043 5.03447 18.9837 2.17247 14.4837Z" fill="#61BC5B"/>
<path d="M9.3373 19L10.5286 13.9731C10.5286 13.9731 11.8377 13.8692 12.9373 12.6526C12.2549 13.8643 9.3373 19 9.3373 19Z" fill="#5AB055"/>
<path d="M5.9263 9.99997C5.9263 7.80233 7.72958 6.02032 9.95258 6.02032C12.1764 6.02032 13.9789 7.80233 13.9789 9.99997C13.9789 12.1968 12.1764 13.9788 9.9534 13.9788C7.72958 13.9763 5.9263 12.1968 5.9263 9.99997Z" fill="white"/>
<path d="M6.58984 10C6.58293 9.56021 6.66359 9.12342 6.82712 8.71509C6.99065 8.30676 7.23378 7.93504 7.54235 7.62158C7.85093 7.30812 8.21878 7.05918 8.62449 6.88926C9.03021 6.71934 9.46567 6.63183 9.90553 6.63183C10.3454 6.63183 10.7809 6.71934 11.1866 6.88926C11.5923 7.05918 11.9601 7.30812 12.2687 7.62158C12.5773 7.93504 12.8204 8.30676 12.9839 8.71509C13.1475 9.12342 13.2281 9.56021 13.2212 10C13.2075 10.8704 12.8522 11.7005 12.2319 12.3111C11.6116 12.9218 10.776 13.264 9.90553 13.264C9.03507 13.264 8.19951 12.9218 7.57918 12.3111C6.95886 11.7005 6.60351 10.8704 6.58984 10Z" fill="url(#paint0_linear_35_2642)"/>
<path d="M18.0526 6.0236L13.1083 7.44151C13.1083 7.44151 12.3621 6.37214 10.7585 6.0236C12.1494 6.01623 18.0526 6.0236 18.0526 6.0236Z" fill="#EACA05"/>
<path d="M6.09892 11.1365C5.39774 9.92883 2.51527 4.97882 2.51527 4.97882L6.21183 8.61401C6.21183 8.61401 5.83219 9.39128 5.97456 10.5016L6.09974 11.1365H6.09892Z" fill="#DF3A32"/>
<defs>
<linearGradient id="paint0_linear_35_2642" x1="9.9054" y1="6.67865" x2="9.9054" y2="13.0644" gradientUnits="userSpaceOnUse">
<stop stop-color="#86BBE5"/>
<stop offset="1" stop-color="#1072BA"/>
</linearGradient>
</defs>
</svg>
