<svg width="20" height="20" viewBox="0 0 20 20" fill="none" xmlns="http://www.w3.org/2000/svg">
<mask id="mask0_35_2679" style="mask-type:alpha" maskUnits="userSpaceOnUse" x="1" y="1" width="19" height="18">
<path d="M10.0265 19C5.04514 19 1.00654 14.9717 1 9.99992V9.98797C1.03579 5.26891 5.04208 1.00156 10.0274 1C15.9031 0.998411 19.3871 5.43037 19.0692 8.94973C18.9901 9.8263 18.3268 12.525 15.1614 12.9593C14.8356 13.0039 12.5219 13.0712 11.6564 12.1405C11.347 11.8077 11.6555 11.5576 11.7022 11.5122C11.7022 11.5122 12.3685 10.7085 12.2913 9.96019C12.2782 9.83354 12.1593 7.83373 10.0297 7.72881C8.78448 7.66747 7.76047 8.71547 7.76047 9.96019C7.76047 9.96019 7.53074 13.0485 11.3501 14.6691C12.7921 15.281 14.8221 15.4708 16.9982 14.5492C17.3947 14.3812 17.4464 14.2888 17.6276 14.4269C17.8267 14.5785 17.6309 14.8457 17.6309 14.8457C16.0263 17.3442 13.22 19 10.0265 19H10.0265Z" fill="white"/>
</mask>
<g mask="url(#mask0_35_2679)">
<path d="M10.0265 19C5.04514 19 1.00654 14.9717 1 9.99992V9.98797C1.03579 5.26891 5.04208 1.00156 10.0274 1C15.9031 0.998411 19.3871 5.43037 19.0692 8.94973C18.9901 9.8263 18.3268 12.525 15.1614 12.9593C14.8356 13.0039 12.5219 13.0712 11.6564 12.1405C11.347 11.8077 11.6555 11.5576 11.7022 11.5122C11.7022 11.5122 12.3685 10.7085 12.2913 9.96019C12.2782 9.83354 12.1593 7.83373 10.0297 7.72881C8.78448 7.66747 7.76047 8.71547 7.76047 9.96019C7.76047 9.96019 7.53074 13.0485 11.3501 14.6691C12.7921 15.281 14.8221 15.4708 16.9982 14.5492C17.3947 14.3812 17.4464 14.2888 17.6276 14.4269C17.8267 14.5785 17.6309 14.8457 17.6309 14.8457C16.0263 17.3442 13.22 19 10.0265 19H10.0265Z" fill="#114C8E"/>
<g filter="url(#filter0_d_35_2679)">
<path d="M11.6743 11.5402C11.6743 11.5402 11.3192 11.8359 11.6285 12.1688C12.4937 13.0999 14.8375 13.0326 15.1632 12.9879C18.328 12.5534 18.9871 9.85319 19.0702 8.97661C19.4048 5.44607 15.9386 0.999012 10.0295 0.999012C5.28108 0.999073 1.38914 4.66292 1.03163 9.31533C1.0139 9.54631 1.11888 6.51488 4.99551 5.4196C7.04871 4.83954 12.148 5.58115 12.2938 9.98753C12.3187 10.7398 11.6743 11.5402 11.6743 11.5402V11.5402Z" fill="black"/>
</g>
<path d="M11.6743 11.5402C11.6743 11.5402 11.3192 11.8359 11.6285 12.1688C12.4937 13.0999 14.8375 13.0326 15.1632 12.9879C18.328 12.5534 18.9871 9.85319 19.0702 8.97661C19.4048 5.44607 15.9386 0.999012 10.0295 0.999012C5.28108 0.999073 1.38914 4.66292 1.03163 9.31533C1.0139 9.54631 1.11888 6.51488 4.99551 5.4196C7.04871 4.83954 12.148 5.58115 12.2938 9.98753C12.3187 10.7398 11.6743 11.5402 11.6743 11.5402V11.5402Z" fill="url(#paint0_linear_35_2679)"/>
</g>
<defs>
<filter id="filter0_d_35_2679" x="0.453064" y="0.829233" width="19.2166" height="13.1654" filterUnits="userSpaceOnUse" color-interpolation-filters="sRGB">
<feFlood flood-opacity="0" result="BackgroundImageFix"/>
<feColorMatrix in="SourceAlpha" type="matrix" values="0 0 0 0 0 0 0 0 0 0 0 0 0 0 0 0 0 0 127 0" result="hardAlpha"/>
<feOffset dy="0.40747"/>
<feGaussianBlur stdDeviation="0.288625"/>
<feColorMatrix type="matrix" values="0 0 0 0 0 0 0 0 0 0 0 0 0 0 0 0 0 0 0.24 0"/>
<feBlend mode="normal" in2="BackgroundImageFix" result="effect1_dropShadow_35_2679"/>
<feBlend mode="normal" in="SourceGraphic" in2="effect1_dropShadow_35_2679" result="shape"/>
</filter>
<linearGradient id="paint0_linear_35_2679" x1="10.4276" y1="6.02892" x2="17.7085" y2="10.6407" gradientUnits="userSpaceOnUse">
<stop stop-color="#32C2F0"/>
<stop offset="1" stop-color="#4BD767"/>
</linearGradient>
</defs>
</svg>
