<svg width="18" height="18" viewBox="0 0 18 18" fill="none" xmlns="http://www.w3.org/2000/svg">
<path d="M17.3517 6.03697C16.96 5.12521 16.1667 4.14087 15.5437 3.82975C16.0507 4.79163 16.3442 5.75651 16.4563 6.47662C16.4563 6.47804 16.4569 6.48156 16.4581 6.49114C15.439 4.03308 13.7111 3.04192 12.3001 0.883805C12.2288 0.77468 12.1574 0.665264 12.0878 0.549933C12.0523 0.491033 12.0192 0.430844 11.9885 0.369498C11.9299 0.259968 11.8847 0.144193 11.8538 0.0245213C11.854 0.0188558 11.852 0.0133168 11.8483 0.0089925C11.8445 0.00466816 11.8391 0.00187093 11.8333 0.00115027C11.8278 -0.000383422 11.8219 -0.000383422 11.8164 0.00115027C11.8151 0.00158575 11.8133 0.00300107 11.8119 0.00350914C11.8099 0.00427124 11.8074 0.00601318 11.8053 0.00713818C11.8063 0.00583172 11.8084 0.0028922 11.8091 0.00220269C9.54521 1.28529 8.77722 3.65886 8.70665 4.84639C7.80262 4.90653 6.93829 5.22886 6.22634 5.77136C6.1518 5.71043 6.07387 5.65349 5.9929 5.60079C5.78749 4.90532 5.77876 4.16924 5.96763 3.46939C5.04184 3.87733 4.32177 4.52217 3.79827 5.09157H3.79411C3.43685 4.65365 3.46205 3.20907 3.48241 2.90746C3.47814 2.88878 3.2159 3.0392 3.18155 3.06188C2.8663 3.27965 2.57157 3.52399 2.30083 3.79204C1.99274 4.0944 1.71125 4.42109 1.45926 4.76873C1.45926 4.76916 1.459 4.76967 1.45885 4.77011C1.45885 4.76963 1.45911 4.76916 1.45926 4.76873C0.879757 5.56346 0.468754 6.46147 0.250011 7.41085C0.245698 7.42975 0.242061 7.44935 0.237861 7.4684C0.220911 7.54519 0.159861 7.92929 0.149174 8.01276C0.148349 8.01918 0.147974 8.02535 0.147186 8.03178C0.0682584 8.42889 0.019379 8.83105 0.000937478 9.23506C0.000937478 9.24993 0 9.26467 0 9.27958C0.000149999 14.0958 4.03512 18 9.01223 18C13.4696 18 17.1707 14.8686 17.8952 10.7553C17.9105 10.6437 17.9227 10.5315 17.9362 10.4189C18.1153 8.92336 17.9163 7.35144 17.3517 6.03697ZM6.96445 12.863C7.0066 12.8825 7.0462 12.9038 7.08947 12.9224C7.09127 12.9236 7.09375 12.925 7.09558 12.9261C7.05154 12.9057 7.00782 12.8847 6.96445 12.863ZM16.4588 6.49328L16.4576 6.48483C16.458 6.48791 16.4586 6.49114 16.4591 6.49423L16.4588 6.49328Z" fill="url(#paint0_linear_35_2629)"/>
<path d="M17.3517 6.03699C16.96 5.12523 16.1667 4.14089 15.5437 3.82977C16.0507 4.79165 16.3442 5.75653 16.4563 6.47664C16.4563 6.47454 16.4567 6.47839 16.4576 6.48485C16.4581 6.48793 16.4587 6.49116 16.4592 6.49424C17.3095 8.72501 16.8462 10.9935 16.1787 12.3796C15.146 14.5244 12.6457 16.7225 8.73215 16.6153C4.50387 16.4994 0.77887 13.4633 0.0835131 9.48664C-0.0431984 8.85954 0.0835132 8.54113 0.147263 8.03198C0.0696008 8.42449 0.0400135 8.53786 0.00101381 9.23526C0.00101381 9.25014 7.62939e-05 9.26487 7.62939e-05 9.27979C0.000151293 14.0958 4.03512 18 9.01223 18C13.4696 18 17.1707 14.8686 17.8952 10.7554C17.9105 10.6437 17.9227 10.5315 17.9362 10.4189C18.1153 8.92338 17.9163 7.35146 17.3517 6.03699Z" fill="url(#paint1_radial_35_2629)"/>
<path d="M17.3517 6.03699C16.96 5.12523 16.1667 4.14089 15.5437 3.82977C16.0507 4.79165 16.3442 5.75653 16.4563 6.47664C16.4563 6.47454 16.4567 6.47839 16.4576 6.48485C16.4581 6.48793 16.4587 6.49116 16.4592 6.49424C17.3095 8.72501 16.8462 10.9935 16.1787 12.3796C15.146 14.5244 12.6457 16.7225 8.73215 16.6153C4.50387 16.4994 0.77887 13.4633 0.0835131 9.48664C-0.0431984 8.85954 0.0835132 8.54113 0.147263 8.03198C0.0696008 8.42449 0.0400135 8.53786 0.00101381 9.23526C0.00101381 9.25014 7.62939e-05 9.26487 7.62939e-05 9.27979C0.000151293 14.0958 4.03512 18 9.01223 18C13.4696 18 17.1707 14.8686 17.8952 10.7554C17.9105 10.6437 17.9227 10.5315 17.9362 10.4189C18.1153 8.92338 17.9163 7.35146 17.3517 6.03699Z" fill="url(#paint2_radial_35_2629)"/>
<path d="M12.9721 7.06232C12.9918 7.07568 13.0096 7.08896 13.0281 7.10224C12.8019 6.71378 12.5203 6.35811 12.1915 6.04576C9.39007 3.33501 11.4569 0.168094 11.8055 0.00725483C11.8065 0.00594837 11.8086 0.00300885 11.8092 0.00231934C9.54536 1.2854 8.77736 3.65897 8.70679 4.8465C8.81179 4.83946 8.91649 4.83094 9.02336 4.83094C10.7128 4.83094 12.1842 5.72985 12.9721 7.06232Z" fill="url(#paint3_radial_35_2629)"/>
<path d="M9.02902 7.60336C9.01428 7.82031 8.22225 8.56843 7.94528 8.56843C5.38258 8.56843 4.9666 10.0685 4.9666 10.0685C5.08011 11.3318 5.98888 12.372 7.08949 12.9225C7.13971 12.9476 7.19052 12.9703 7.24137 12.9927C7.32855 13.0301 7.41682 13.065 7.50608 13.0974C7.88346 13.2267 8.27874 13.3005 8.67873 13.3163C13.1704 13.5202 14.0407 8.11974 10.7992 6.55148C11.6293 6.41177 12.491 6.73486 12.9721 7.06198C12.1842 5.72962 10.7128 4.8307 9.02343 4.8307C8.91656 4.8307 8.81189 4.83923 8.70686 4.84627C7.80283 4.90642 6.93851 5.22875 6.22655 5.77124C6.36395 5.88374 6.51905 6.03413 6.84582 6.34565C7.45714 6.92872 9.02568 7.53252 9.02902 7.60336Z" fill="url(#paint4_radial_35_2629)"/>
<path d="M9.02902 7.60336C9.01428 7.82031 8.22225 8.56843 7.94528 8.56843C5.38258 8.56843 4.9666 10.0685 4.9666 10.0685C5.08011 11.3318 5.98888 12.372 7.08949 12.9225C7.13971 12.9476 7.19052 12.9703 7.24137 12.9927C7.32855 13.0301 7.41682 13.065 7.50608 13.0974C7.88346 13.2267 8.27874 13.3005 8.67873 13.3163C13.1704 13.5202 14.0407 8.11974 10.7992 6.55148C11.6293 6.41177 12.491 6.73486 12.9721 7.06198C12.1842 5.72962 10.7128 4.8307 9.02343 4.8307C8.91656 4.8307 8.81189 4.83923 8.70686 4.84627C7.80283 4.90642 6.93851 5.22875 6.22655 5.77124C6.36395 5.88374 6.51905 6.03413 6.84582 6.34565C7.45714 6.92872 9.02568 7.53252 9.02902 7.60336Z" fill="url(#paint5_radial_35_2629)"/>
<path d="M5.80619 5.48112C5.86895 5.5203 5.93122 5.56023 5.99297 5.60088C5.78756 4.90541 5.77883 4.16933 5.9677 3.46947C5.04191 3.87741 4.32184 4.52226 3.79834 5.09165C3.84165 5.09046 5.14885 5.0677 5.80619 5.48112Z" fill="url(#paint6_radial_35_2629)"/>
<path d="M0.083507 9.4867C0.778864 13.4633 4.50386 16.4995 8.73214 16.6154C12.6456 16.7226 15.146 14.5243 16.1787 12.3797C16.8462 10.9934 17.3095 8.72526 16.4591 6.4943L16.4588 6.49336L16.4576 6.4849C16.4567 6.47845 16.4561 6.4746 16.4563 6.4767C16.4563 6.47812 16.4569 6.48164 16.4581 6.49122C16.7777 8.51118 15.7159 10.4681 14.0562 11.7912L14.0512 11.8026C10.817 14.351 7.7222 13.3401 7.09558 12.9263C7.05153 12.9058 7.00778 12.8847 6.96433 12.8631C5.07877 11.9911 4.29982 10.3286 4.46685 8.90293C2.87472 8.90293 2.33184 7.60341 2.33184 7.60341C2.33184 7.60341 3.76129 6.61707 5.64524 7.47491C7.3901 8.26941 9.02876 7.60348 9.02895 7.60341C9.02561 7.53257 7.45708 6.92877 6.8456 6.34573C6.51887 6.03421 6.36373 5.88401 6.22633 5.77133C6.15179 5.7104 6.07387 5.65346 5.9929 5.60076C5.93107 5.56021 5.86881 5.52029 5.80611 5.481C5.14882 5.06758 3.84158 5.09034 3.79827 5.09143H3.7941C3.43684 4.65351 3.46204 3.20894 3.48241 2.90733C3.47813 2.88864 3.2159 3.03906 3.18155 3.06174C2.86629 3.27951 2.57157 3.52385 2.30083 3.7919C1.99273 4.09433 1.71123 4.4211 1.45926 4.76881C1.45926 4.76924 1.459 4.76975 1.45885 4.77018C1.45885 4.76971 1.45911 4.76924 1.45926 4.76881C0.879752 5.56354 0.468749 6.46155 0.250006 7.41093C0.245693 7.42983 -0.0743668 8.78423 0.083507 9.4867Z" fill="url(#paint7_radial_35_2629)"/>
<path d="M12.1915 6.04546C12.5203 6.35782 12.8019 6.71348 13.0281 7.10194C13.0777 7.13802 13.1241 7.17398 13.1634 7.20907C15.2065 9.03085 14.136 11.6075 14.0562 11.7911C15.7159 10.4679 16.7777 8.51106 16.4581 6.4911C15.439 4.03308 13.7111 3.04192 12.3001 0.883805C12.2288 0.77468 12.1574 0.665264 12.0878 0.549933C12.0523 0.491033 12.0192 0.430844 11.9885 0.369498C11.9299 0.259968 11.8847 0.144193 11.8538 0.0245213C11.854 0.0188558 11.852 0.0133168 11.8483 0.0089925C11.8445 0.00466816 11.8391 0.00187093 11.8333 0.00115027C11.8278 -0.000383422 11.8219 -0.000383422 11.8164 0.00115027C11.8151 0.00158575 11.8133 0.00300107 11.8119 0.00350914C11.8099 0.00427124 11.8074 0.00601318 11.8053 0.00713818C11.4569 0.167832 9.39008 3.33475 12.1915 6.04546Z" fill="url(#paint8_radial_35_2629)"/>
<path d="M13.1634 7.20917C13.1241 7.17408 13.0777 7.13811 13.0281 7.10204C13.0098 7.08869 12.9918 7.0754 12.9721 7.06212C12.4909 6.735 11.6293 6.41191 10.7991 6.55163C14.0406 8.11988 13.1704 13.5203 8.6787 13.3164C8.27871 13.3006 7.88342 13.2269 7.50605 13.0976C7.4168 13.0651 7.32853 13.0302 7.24134 12.9928C7.19049 12.9704 7.13967 12.9477 7.08946 12.9226C7.09126 12.9238 7.09374 12.9252 7.09557 12.9262C7.72219 13.34 10.817 14.3509 14.0512 11.8025L14.0562 11.7911C14.136 11.6077 15.2065 9.03098 13.1634 7.20917Z" fill="url(#paint9_radial_35_2629)"/>
<path d="M4.96657 10.0685C4.96657 10.0685 5.38256 8.5684 7.94525 8.5684C8.2223 8.5684 9.01433 7.82028 9.02899 7.60333C9.04365 7.38639 7.39025 8.26933 5.64528 7.47483C3.76133 6.617 2.33188 7.60333 2.33188 7.60333C2.33188 7.60333 2.87476 8.90285 4.46689 8.90285C4.2999 10.3286 5.07885 11.9912 6.96437 12.863C7.00652 12.8825 7.04612 12.9038 7.08939 12.9225C5.98885 12.372 5.08008 11.3317 4.96657 10.0685Z" fill="url(#paint10_radial_35_2629)"/>
<path d="M17.3517 6.03697C16.96 5.12521 16.1667 4.14087 15.5437 3.82975C16.0507 4.79163 16.3442 5.75651 16.4563 6.47662C16.4563 6.47804 16.4569 6.48156 16.4581 6.49114C15.439 4.03308 13.7111 3.04192 12.3001 0.883805C12.2288 0.77468 12.1574 0.665264 12.0878 0.549933C12.0523 0.491033 12.0192 0.430844 11.9885 0.369498C11.9299 0.259968 11.8847 0.144193 11.8538 0.0245213C11.854 0.0188558 11.852 0.0133168 11.8483 0.0089925C11.8445 0.00466816 11.8391 0.00187093 11.8333 0.00115027C11.8278 -0.000383422 11.8219 -0.000383422 11.8164 0.00115027C11.8151 0.00158575 11.8133 0.00300107 11.8119 0.00350914C11.8099 0.00427124 11.8074 0.00601318 11.8053 0.00713818C11.8063 0.00583172 11.8084 0.0028922 11.8091 0.00220269C9.54522 1.28529 8.77722 3.65886 8.70665 4.84639C8.81165 4.83935 8.91635 4.83082 9.02322 4.83082C10.7127 4.83082 12.1841 5.72973 12.9719 7.0621C12.4907 6.73498 11.6291 6.41188 10.7989 6.5516C14.0405 8.11985 13.1702 13.5203 8.67852 13.3164C8.27853 13.3006 7.88325 13.2268 7.50587 13.0975C7.41663 13.0651 7.32836 13.0301 7.24116 12.9928C7.19031 12.9704 7.1395 12.9477 7.08929 12.9226C7.09109 12.9238 7.09356 12.9251 7.0954 12.9262C7.05135 12.9057 7.0076 12.8846 6.96415 12.863C7.0063 12.8825 7.0459 12.9038 7.08917 12.9224C5.98856 12.372 5.07979 11.3317 4.96628 10.0685C4.96628 10.0685 5.38226 8.5684 7.94495 8.5684C8.222 8.5684 9.01403 7.82028 9.0287 7.60333C9.02536 7.53249 7.45682 6.92869 6.84535 6.34565C6.51861 6.03414 6.36348 5.88393 6.22608 5.77125C6.15154 5.71032 6.07361 5.65338 5.99264 5.60068C5.78723 4.90521 5.7785 4.16913 5.96737 3.46928C5.04158 3.87722 4.32151 4.52206 3.79801 5.09146H3.79385C3.43659 4.65354 3.46179 3.20897 3.48215 2.90736C3.47788 2.88867 3.21564 3.03909 3.18129 3.06177C2.86604 3.27954 2.57131 3.52388 2.30057 3.79193C1.99257 4.09434 1.71116 4.42107 1.45927 4.76873C1.45927 4.76916 1.459 4.76967 1.45885 4.77011C1.45885 4.76963 1.45912 4.76916 1.45927 4.76873C0.879759 5.56346 0.468757 6.46147 0.250013 7.41085C0.245701 7.42975 0.242063 7.44935 0.237863 7.4684C0.220913 7.54519 0.144639 7.93484 0.133989 8.01842C0.133164 8.02484 0.134777 8.01203 0.133989 8.01842C0.0644328 8.42107 0.0200524 8.82741 0.00109007 9.23524C0.00109007 9.25012 0.000152588 9.26485 0.000152588 9.27977C0.000152588 14.0958 4.03512 18 9.01223 18C13.4696 18 17.1707 14.8686 17.8952 10.7553C17.9105 10.6437 17.9227 10.5315 17.9362 10.4189C18.1153 8.92336 17.9163 7.35144 17.3517 6.03697ZM16.4577 6.48483C16.4581 6.48791 16.4587 6.49114 16.4592 6.49423L16.4589 6.49328L16.4577 6.48483Z" fill="url(#paint11_linear_35_2629)"/>
<defs>
<linearGradient id="paint0_linear_35_2629" x1="15.705" y1="2.79" x2="1.69202" y2="16.758" gradientUnits="userSpaceOnUse">
<stop offset="0.05" stop-color="#FFF44F"/>
<stop offset="0.37" stop-color="#FF980E"/>
<stop offset="0.53" stop-color="#FF3647"/>
<stop offset="0.7" stop-color="#E31587"/>
</linearGradient>
<radialGradient id="paint1_radial_35_2629" cx="0" cy="0" r="1" gradientUnits="userSpaceOnUse" gradientTransform="translate(12.4723 2.00649) scale(18.4319 18.1379)">
<stop offset="0.13" stop-color="#FFBD4F"/>
<stop offset="0.28" stop-color="#FF980E"/>
<stop offset="0.47" stop-color="#FF3750"/>
<stop offset="0.78" stop-color="#EB0878"/>
<stop offset="0.86" stop-color="#E50080"/>
</radialGradient>
<radialGradient id="paint2_radial_35_2629" cx="0" cy="0" r="1" gradientUnits="userSpaceOnUse" gradientTransform="translate(7.12776 9.49786) scale(18.8927 18.1379)">
<stop offset="0.3" stop-color="#960E18"/>
<stop offset="0.35" stop-color="#B11927" stop-opacity="0.74"/>
<stop offset="0.43" stop-color="#DB293D" stop-opacity="0.34"/>
<stop offset="0.5" stop-color="#F5334B" stop-opacity="0.09"/>
<stop offset="0.53" stop-color="#FF3750" stop-opacity="0"/>
</radialGradient>
<radialGradient id="paint3_radial_35_2629" cx="0" cy="0" r="1" gradientUnits="userSpaceOnUse" gradientTransform="translate(10.781 -0.849672) scale(6.04984 9.93989)">
<stop offset="0.13" stop-color="#FFF44F"/>
<stop offset="0.53" stop-color="#FF980E"/>
</radialGradient>
<radialGradient id="paint4_radial_35_2629" cx="0" cy="0" r="1" gradientUnits="userSpaceOnUse" gradientTransform="translate(6.78866 14.1804) scale(8.00555 8.49122)">
<stop offset="0.35" stop-color="#3A8EE6"/>
<stop offset="0.67" stop-color="#9059FF"/>
<stop offset="1" stop-color="#C139E6"/>
</radialGradient>
<radialGradient id="paint5_radial_35_2629" cx="0" cy="0" r="1" gradientUnits="userSpaceOnUse" gradientTransform="translate(8.15655 7.63281) scale(4.25095 5.00982)">
<stop offset="0.21" stop-color="#9059FF" stop-opacity="0"/>
<stop offset="0.97" stop-color="#6E008B" stop-opacity="0.6"/>
</radialGradient>
<radialGradient id="paint6_radial_35_2629" cx="0" cy="0" r="1" gradientUnits="userSpaceOnUse" gradientTransform="translate(8.40707 1.33807) scale(6.36443 6.18108)">
<stop offset="0.1" stop-color="#FFE226"/>
<stop offset="0.79" stop-color="#FF7139"/>
</radialGradient>
<radialGradient id="paint7_radial_35_2629" cx="0" cy="0" r="1" gradientUnits="userSpaceOnUse" gradientTransform="translate(14.2195 -2.71677) scale(30.3852 24.6841)">
<stop offset="0.11" stop-color="#FFF44F"/>
<stop offset="0.46" stop-color="#FF980E"/>
<stop offset="0.72" stop-color="#FF3647"/>
<stop offset="0.9" stop-color="#E31587"/>
</radialGradient>
<radialGradient id="paint8_radial_35_2629" cx="0" cy="0" r="1" gradientUnits="userSpaceOnUse" gradientTransform="translate(2.93513 5.43481) rotate(76.9886) scale(9.34433 41.6348)">
<stop stop-color="#FFF44F"/>
<stop offset="0.3" stop-color="#FF980E"/>
<stop offset="0.57" stop-color="#FF3647"/>
<stop offset="0.74" stop-color="#E31587"/>
</radialGradient>
<radialGradient id="paint9_radial_35_2629" cx="0" cy="0" r="1" gradientUnits="userSpaceOnUse" gradientTransform="translate(8.47252 3.56132) scale(17.4455 16.5864)">
<stop offset="0.14" stop-color="#FFF44F"/>
<stop offset="0.48" stop-color="#FF980E"/>
<stop offset="0.66" stop-color="#FF3647"/>
<stop offset="0.9" stop-color="#E31587"/>
</radialGradient>
<radialGradient id="paint10_radial_35_2629" cx="0" cy="0" r="1" gradientUnits="userSpaceOnUse" gradientTransform="translate(13.0005 4.53128) scale(20.969 18.1543)">
<stop offset="0.09" stop-color="#FFF44F"/>
<stop offset="0.63" stop-color="#FF980E"/>
</radialGradient>
<linearGradient id="paint11_linear_35_2629" x1="14.4" y1="2.52" x2="3.24004" y2="15.1199" gradientUnits="userSpaceOnUse">
<stop offset="0.17" stop-color="#FFF44F" stop-opacity="0.8"/>
<stop offset="0.6" stop-color="#FFF44F" stop-opacity="0"/>
</linearGradient>
</defs>
</svg>
