<svg width="20" height="20" viewBox="0 0 20 20" fill="none" xmlns="http://www.w3.org/2000/svg">
<path d="M19.1111 10.3361C19.1111 8.91735 18.7429 7.58448 18.0982 6.42589C20.8474 0.221384 15.1518 1.13042 14.8343 1.19178C13.6274 1.42743 12.5106 1.80544 11.4813 2.28492C9.57762 2.17468 7.69625 2.74071 6.16945 3.88304C4.64265 5.02537 3.56865 6.67051 3.13714 8.52788C5.16221 6.26062 6.58018 5.34667 7.42948 4.98093C7.29448 5.10039 7.16193 5.2223 7.03101 5.34667L6.90255 5.4694C6.81664 5.55122 6.73073 5.63468 6.64645 5.71814L6.49918 5.86787L6.27826 6.09452L6.12525 6.25652C5.82725 6.57384 5.53963 6.90075 5.26285 7.23674C5.1593 7.3617 5.05702 7.48772 4.95602 7.61476L4.80629 7.80377L4.66883 7.98377L4.51419 8.18669L4.40782 8.33069C4.10355 8.74517 3.81212 9.16894 3.53397 9.60138L3.53233 9.60465C3.46419 9.71053 3.39682 9.8169 3.33024 9.92376C3.32614 9.92948 3.32205 9.93521 3.3196 9.94094C3.25414 10.0449 3.19114 10.1488 3.12814 10.2535L3.12159 10.265C2.96368 10.5268 2.81067 10.7919 2.66176 11.0586C1.93355 12.3759 1.57844 13.2948 1.5629 13.3496C-0.737102 21.5497 6.44272 18.0871 7.44503 17.57C8.55809 18.118 9.78243 18.4021 11.0231 18.4004C12.6918 18.4017 14.3201 17.8869 15.6849 16.9265C17.0496 15.9662 18.084 14.6074 18.6464 13.0362H14.3958C13.7665 14.0958 12.5556 14.8126 11.1646 14.8126C9.12728 14.8126 7.47448 13.2743 7.47448 11.3744H19.044C19.0882 11.0349 19.1111 10.6871 19.1111 10.3353V10.3361ZM17.5999 2.39947C18.297 2.86912 18.855 3.6047 17.8961 6.08388C16.9674 4.59577 15.5814 3.44884 13.9457 2.81512C14.6944 2.45511 16.5477 1.69171 17.5999 2.40029V2.39947ZM2.79676 17.5536C2.22892 16.9743 2.1291 15.5612 3.38096 12.9871C4.01227 14.7883 5.25989 16.3083 6.90337 17.2787C6.09334 17.723 3.94144 18.7245 2.79594 17.5544L2.79676 17.5536ZM7.4573 9.17018C7.52194 7.32429 9.133 5.8466 11.1123 5.8466C13.0923 5.8466 14.7034 7.32429 14.768 9.17018H7.4573Z" fill="#1EBBEE"/>
</svg>
