<svg width="20" height="20" viewBox="0 0 20 20" fill="none" xmlns="http://www.w3.org/2000/svg">
<path d="M17.9412 15.3963C17.6401 16.0691 17.2698 16.7088 16.8362 17.305C16.255 18.1025 15.78 18.6525 15.4137 18.9588C14.845 19.4613 14.2362 19.7188 13.585 19.7338C13.1175 19.7338 12.5525 19.605 11.8962 19.3463C11.2362 19.0875 10.6313 18.9588 10.0775 18.9588C9.49625 18.9588 8.87375 19.0875 8.2075 19.3463C7.54 19.605 7.0025 19.7413 6.59125 19.7537C5.96625 19.78 5.34375 19.5163 4.72125 18.9588C4.325 18.6263 3.82875 18.055 3.23375 17.2463C2.56523 16.3266 2.03463 15.3143 1.65875 14.2413C1.22125 13.0075 1 11.8138 1 10.6588C1 9.33375 1.2975 8.1925 1.89375 7.235C2.36125 6.46625 2.985 5.86 3.765 5.415C4.53526 4.97353 5.40598 4.73723 6.29375 4.72875C6.79125 4.72875 7.44125 4.87625 8.25125 5.16625C9.0575 5.4575 9.57625 5.605 9.8025 5.605C9.9725 5.605 10.5475 5.4325 11.5237 5.08875C12.4462 4.76875 13.2238 4.6375 13.8625 4.68875C15.5913 4.82375 16.89 5.47875 17.7537 6.65875C16.2075 7.55875 15.4425 8.82125 15.4575 10.44C15.4725 11.7 15.9475 12.75 16.8825 13.5825C17.305 13.97 17.7787 14.2675 18.305 14.48C18.1912 14.7988 18.07 15.1025 17.9425 15.3963H17.9412ZM13.9762 0.395C13.9762 1.3825 13.6012 2.305 12.8538 3.15875C11.95 4.17375 10.8588 4.76125 9.67375 4.66875C9.6579 4.54438 9.64997 4.41913 9.65 4.29375C9.65 3.345 10.08 2.33125 10.8425 1.5C11.2526 1.05874 11.7458 0.702771 12.2937 0.4525C12.88 0.1775 13.4338 0.0275 13.9562 0C13.97 0.1325 13.9762 0.265 13.9762 0.39625V0.395Z" fill="#A9A9A9"/>
</svg>
