<svg width="20" height="20" viewBox="0 0 20 20" fill="none" xmlns="http://www.w3.org/2000/svg">
<path d="M7.03491 15.0702C6.03673 13.8957 5.39773 12.1586 5.35518 10.2109V9.78902C5.39773 7.84139 6.04409 6.10431 7.03491 4.93063C8.32764 3.25771 10.2242 2.50432 12.3662 2.50432C13.6875 2.50432 14.9304 2.59643 15.9842 3.29965C14.3487 1.82099 12.2274 1.00198 10.0278 1H9.99182C5.02545 1 1 5.02933 1 10.0004C1 14.8234 4.79391 18.768 9.56391 18.9934C9.70382 19 9.85191 19 9.99182 19C12.2023 19.0059 14.3368 18.1894 15.9842 16.7077C14.9304 17.4109 13.7571 17.4397 12.4365 17.4397C10.3011 17.4463 8.32027 16.7505 7.03491 15.0702Z" fill="url(#paint0_linear_35_2653)"/>
<path d="M7.03164 4.87803C7.85473 3.90174 8.92409 3.31778 10.0916 3.31778C12.7164 3.31778 14.842 6.28447 14.842 9.95272C14.842 13.6218 12.7164 16.5877 10.0925 16.5877C8.92409 16.5877 7.86209 15.9971 7.03164 15.0274C8.326 16.7003 10.2471 17.7687 12.3858 17.7687C13.6711 17.7671 14.9271 17.383 15.9956 16.665C17.839 15.0069 19 12.6102 19 9.94532C19 7.28213 17.839 4.88543 15.9956 3.24047C14.9275 2.52175 13.6712 2.1379 12.3858 2.13752C10.2397 2.13752 8.31946 3.19852 7.03164 4.87803Z" fill="url(#paint1_linear_35_2653)"/>
<defs>
<linearGradient id="paint0_linear_35_2653" x1="8.49254" y1="1.2934" x2="8.49254" y2="18.7381" gradientUnits="userSpaceOnUse">
<stop offset="0.3" stop-color="#FF1B2D"/>
<stop offset="0.4381" stop-color="#FA1A2C"/>
<stop offset="0.5939" stop-color="#ED1528"/>
<stop offset="0.7581" stop-color="#D60E21"/>
<stop offset="0.9272" stop-color="#B70519"/>
<stop offset="1" stop-color="#A70014"/>
</linearGradient>
<linearGradient id="paint1_linear_35_2653" x1="13.0146" y1="2.27086" x2="13.0146" y2="17.6936" gradientUnits="userSpaceOnUse">
<stop stop-color="#9C0000"/>
<stop offset="0.7" stop-color="#FF4B4B"/>
</linearGradient>
</defs>
</svg>
