<svg width="20" height="20" viewBox="0 0 20 20" fill="none" xmlns="http://www.w3.org/2000/svg">
<g opacity="0.53" filter="url(#filter0_f_35_2616)">
<path d="M18.6723 10.6909C18.6723 12.8946 17.7589 15.0081 16.1329 16.5663C14.507 18.1246 12.3017 19 10.0023 19C7.70286 19 5.49762 18.1246 3.87168 16.5663C2.24573 15.0081 1.33229 12.8946 1.33229 10.6909C1.33229 8.48717 2.24573 6.37371 3.87168 4.81545C5.49762 3.25719 7.70286 2.38177 10.0023 2.38177C12.3017 2.38177 14.507 3.25719 16.1329 4.81545C17.7589 6.37371 18.6723 8.48717 18.6723 10.6909Z" fill="black"/>
</g>
<path d="M19 9.9576C19 12.3333 18.0518 14.6117 16.364 16.2916C14.6761 17.9715 12.3869 18.9152 10 18.9152C7.61305 18.9152 5.32386 17.9715 3.63603 16.2916C1.94821 14.6117 1 12.3333 1 9.9576C1 7.5819 1.94821 5.3035 3.63603 3.62362C5.32386 1.94374 7.61305 1 10 1C12.3869 1 14.6761 1.94374 16.364 3.62362C18.0518 5.3035 19 7.5819 19 9.9576Z" fill="url(#paint0_linear_35_2616)" stroke="#CDCDCD" stroke-width="0.0282658" stroke-linecap="round" stroke-linejoin="round"/>
<path d="M18.2961 9.9576C18.2961 12.1472 17.4222 14.2471 15.8666 15.7954C14.311 17.3437 12.2011 18.2135 10.0011 18.2135C7.80119 18.2135 5.69134 17.3437 4.13574 15.7954C2.58013 14.2471 1.70621 12.1472 1.70621 9.9576C1.70621 7.76801 2.58013 5.6681 4.13574 4.11983C5.69134 2.57155 7.80119 1.70174 10.0011 1.70174C12.2011 1.70174 14.311 2.57155 15.8666 4.11983C17.4222 5.6681 18.2961 7.76801 18.2961 9.9576Z" fill="url(#paint1_radial_35_2616)"/>
<path d="M10.0014 2.13093C9.96944 2.13093 9.93874 2.14359 9.91611 2.16611C9.89348 2.18863 9.88077 2.21918 9.88077 2.25103V3.63964C9.88077 3.67149 9.89348 3.70204 9.91611 3.72457C9.93874 3.74709 9.96944 3.75974 10.0014 3.75974C10.0334 3.75974 10.0641 3.74709 10.0868 3.72457C10.1094 3.70204 10.1221 3.67149 10.1221 3.63964V2.25132C10.1221 2.23552 10.1191 2.21988 10.113 2.20527C10.107 2.19067 10.0981 2.17739 10.0869 2.16621C10.0757 2.15503 10.0623 2.14615 10.0477 2.1401C10.033 2.13405 10.0173 2.13093 10.0014 2.13093ZM9.21019 2.18069C9.19231 2.17888 9.17425 2.18107 9.15733 2.1871C9.14041 2.19313 9.12506 2.20284 9.11239 2.21553C9.09972 2.22822 9.09007 2.24356 9.08412 2.26044C9.07817 2.27732 9.07609 2.2953 9.07802 2.31309L9.13893 2.89358C9.14055 2.90929 9.14527 2.92454 9.15281 2.93844C9.16035 2.95234 9.17057 2.96463 9.18289 2.9746C9.1952 2.98457 9.20936 2.99203 9.22457 2.99655C9.23978 3.00107 9.25574 3.00257 9.27153 3.00096C9.28732 2.99934 9.30263 2.99465 9.3166 2.98714C9.33057 2.97963 9.34291 2.96946 9.35293 2.95721C9.36295 2.94496 9.37044 2.93086 9.37499 2.91572C9.37953 2.90058 9.38103 2.8847 9.37941 2.86899L9.3185 2.28792C9.31565 2.26035 9.30331 2.23462 9.28357 2.21507C9.26382 2.19553 9.2379 2.18338 9.21019 2.18069ZM10.7982 2.18126C10.7704 2.18395 10.7445 2.1961 10.7248 2.21564C10.705 2.23519 10.6927 2.26093 10.6898 2.28849L10.6284 2.86927C10.6267 2.88499 10.6282 2.90088 10.6327 2.91603C10.6372 2.93118 10.6446 2.9453 10.6546 2.95758C10.6646 2.96986 10.6769 2.98006 10.6909 2.9876C10.7049 2.99514 10.7202 2.99988 10.7359 3.00153C10.7517 3.00318 10.7677 3.00172 10.7829 2.99723C10.7981 2.99275 10.8123 2.98532 10.8247 2.97537C10.8496 2.95529 10.8655 2.92618 10.8688 2.89444L10.9303 2.31394C10.9323 2.29614 10.9302 2.27812 10.9243 2.26121C10.9184 2.24429 10.9087 2.22891 10.8961 2.21619C10.8834 2.20347 10.868 2.19373 10.8511 2.18768C10.8341 2.18164 10.8161 2.17945 10.7982 2.18126ZM8.39767 2.29793C8.37969 2.29796 8.36195 2.30199 8.34574 2.30971C8.32953 2.31744 8.31525 2.32868 8.30396 2.3426C8.29267 2.35653 8.28465 2.37278 8.28048 2.39019C8.27632 2.40759 8.27611 2.4257 8.27987 2.4432L8.56862 3.80149C8.5719 3.81696 8.57822 3.83164 8.5872 3.84468C8.59618 3.85773 8.60765 3.86888 8.62097 3.87751C8.63428 3.88614 8.64917 3.89208 8.66479 3.89498C8.68041 3.89788 8.69644 3.8977 8.71199 3.89443C8.72753 3.89116 8.74228 3.88488 8.75539 3.87594C8.76849 3.867 8.7797 3.85558 8.78837 3.84233C8.79704 3.82908 8.803 3.81426 8.80592 3.79872C8.80884 3.78317 8.80865 3.76721 8.80537 3.75174L8.51662 2.39344C8.51091 2.3663 8.49595 2.34196 8.47427 2.32455C8.45259 2.30715 8.42553 2.29774 8.39767 2.29793ZM11.611 2.29907C11.583 2.29882 11.5559 2.30819 11.5342 2.32561C11.5124 2.34302 11.4974 2.3674 11.4917 2.39458L11.2018 3.75231C11.1952 3.78355 11.2012 3.81616 11.2187 3.84294C11.2362 3.86973 11.2637 3.88851 11.2951 3.89514C11.3264 3.90178 11.3592 3.89573 11.3861 3.87833C11.413 3.86093 11.4319 3.8336 11.4386 3.80235L11.7285 2.44405C11.7322 2.42656 11.732 2.40845 11.7279 2.39104C11.7237 2.37364 11.7157 2.35738 11.7044 2.34346C11.6931 2.32954 11.6788 2.3183 11.6626 2.31057C11.6464 2.30284 11.6286 2.29882 11.6107 2.29879L11.611 2.29907ZM7.62222 2.51554C7.60228 2.51373 7.5822 2.51689 7.56379 2.52472C7.54538 2.53256 7.52922 2.54483 7.51677 2.56043C7.50431 2.57604 7.49595 2.59448 7.49244 2.6141C7.48893 2.63372 7.49039 2.6539 7.49667 2.67282L7.67796 3.22815C7.68286 3.24317 7.69069 3.25708 7.701 3.26909C7.71131 3.2811 7.72389 3.29097 7.73803 3.29814C7.75217 3.30531 7.76759 3.30964 7.78341 3.31088C7.79923 3.31211 7.81514 3.31024 7.83023 3.30536C7.84533 3.30048 7.8593 3.29268 7.87137 3.28242C7.88344 3.27217 7.89335 3.25964 7.90056 3.24557C7.90776 3.2315 7.91211 3.21615 7.91335 3.2004C7.9146 3.18466 7.91271 3.16882 7.90781 3.1538L7.7268 2.59847C7.71952 2.57593 7.70571 2.55603 7.68711 2.54127C7.6685 2.52652 7.64592 2.51757 7.62222 2.51554ZM12.3824 2.51583C12.3587 2.51785 12.3361 2.5268 12.3175 2.54156C12.2989 2.55631 12.2851 2.57621 12.2778 2.59876L12.0962 3.15409C12.0913 3.16911 12.0894 3.18494 12.0907 3.20069C12.0919 3.21643 12.0963 3.23178 12.1035 3.24585C12.1107 3.25993 12.1206 3.27245 12.1327 3.28271C12.1447 3.29297 12.1587 3.30076 12.1738 3.30564C12.1889 3.31052 12.2048 3.3124 12.2206 3.31116C12.2364 3.30992 12.2519 3.3056 12.266 3.29843C12.2801 3.29126 12.2927 3.28139 12.303 3.26938C12.3133 3.25737 12.3212 3.24346 12.3261 3.22843L12.5076 2.67311C12.5139 2.65421 12.5154 2.63406 12.5119 2.61446C12.5084 2.59487 12.5 2.57645 12.4876 2.56085C12.4752 2.54526 12.4591 2.53298 12.4407 2.52512C12.4223 2.51726 12.4023 2.51407 12.3824 2.51583ZM6.85539 2.79492C6.8354 2.79521 6.81579 2.80045 6.79833 2.81015C6.78087 2.81985 6.76611 2.83371 6.75537 2.8505C6.74463 2.86729 6.73825 2.88646 6.7368 2.90631C6.73535 2.92616 6.73888 2.94606 6.74707 2.96421L7.31365 4.233C7.32668 4.26216 7.35081 4.28498 7.38075 4.29643C7.39557 4.3021 7.41136 4.3048 7.42724 4.3044C7.44311 4.30399 7.45874 4.30047 7.47325 4.29405C7.48776 4.28763 7.50085 4.27843 7.51179 4.26697C7.52272 4.25551 7.53128 4.24202 7.53697 4.22727C7.54267 4.21252 7.54539 4.1968 7.54498 4.181C7.54457 4.16521 7.54104 4.14964 7.53459 4.1352L6.96801 2.8667C6.9584 2.84507 6.94258 2.82675 6.92255 2.81403C6.90251 2.80131 6.87915 2.79476 6.85539 2.79521V2.79492ZM13.1581 2.79921C13.1343 2.79871 13.1109 2.80523 13.0908 2.81795C13.0707 2.83067 13.0548 2.84903 13.0452 2.8707L12.4769 4.13864C12.4638 4.1678 12.4629 4.20093 12.4744 4.23075C12.4859 4.26056 12.5088 4.28462 12.5381 4.29763C12.5674 4.31063 12.6007 4.31152 12.6306 4.3001C12.6606 4.28868 12.6848 4.26588 12.6978 4.23672L13.2661 2.96879C13.2744 2.95064 13.278 2.93074 13.2766 2.91088C13.2752 2.89101 13.2688 2.8718 13.2581 2.85499C13.2474 2.83817 13.2326 2.82427 13.2152 2.81453C13.1977 2.80479 13.1781 2.79953 13.1581 2.79921ZM6.14343 3.16981C6.12152 3.1682 6.09959 3.17258 6.07999 3.18246C6.0604 3.19235 6.04389 3.20737 6.03224 3.22591C6.02059 3.24444 6.01425 3.2658 6.01389 3.28766C6.01354 3.30952 6.01919 3.33106 6.03023 3.34997L6.32358 3.85611C6.33152 3.8698 6.34209 3.88179 6.35469 3.89142C6.36729 3.90104 6.38167 3.90809 6.39702 3.91218C6.41236 3.91627 6.42836 3.91731 6.4441 3.91525C6.45985 3.91318 6.47503 3.90805 6.48878 3.90015C6.50253 3.89224 6.51459 3.88172 6.52425 3.86918C6.53392 3.85664 6.54101 3.84232 6.54512 3.82706C6.54923 3.81179 6.55027 3.79586 6.5482 3.78019C6.54612 3.76452 6.54097 3.74941 6.53303 3.73572L6.23968 3.22986C6.22983 3.21276 6.21589 3.19833 6.1991 3.18786C6.18232 3.17739 6.1632 3.17119 6.14343 3.16981ZM13.8603 3.16981C13.8405 3.17117 13.8214 3.17735 13.8046 3.18783C13.7878 3.1983 13.7739 3.21274 13.7641 3.22986L13.4704 3.73572C13.4625 3.74943 13.4574 3.76455 13.4553 3.78024C13.4533 3.79592 13.4543 3.81185 13.4585 3.82711C13.4626 3.84238 13.4697 3.85669 13.4794 3.86922C13.4891 3.88175 13.5012 3.89226 13.515 3.90015C13.5287 3.90803 13.5439 3.91314 13.5597 3.91518C13.5754 3.91722 13.5914 3.91616 13.6068 3.91204C13.6221 3.90792 13.6365 3.90084 13.6491 3.8912C13.6617 3.88155 13.6722 3.86953 13.6802 3.85582L13.9732 3.35025C13.9842 3.33137 13.9899 3.30986 13.9895 3.28802C13.9892 3.26619 13.9829 3.24486 13.9713 3.22633C13.9597 3.2078 13.9432 3.19278 13.9236 3.18287C13.9041 3.17296 13.8822 3.16855 13.8603 3.1701V3.16981ZM5.45216 3.59903C5.43025 3.59985 5.40898 3.60655 5.39059 3.61845C5.37221 3.63034 5.35741 3.64697 5.34777 3.66657C5.33813 3.68617 5.33401 3.708 5.33585 3.72975C5.33769 3.75149 5.34542 3.77233 5.35821 3.79005L6.17734 4.91386C6.19616 4.93973 6.22453 4.95709 6.25621 4.96213C6.28789 4.96717 6.32029 4.95948 6.34627 4.94074C6.37226 4.92201 6.3897 4.89377 6.39477 4.86224C6.39983 4.83071 6.3921 4.79846 6.37328 4.7726L5.55387 3.64879C5.54228 3.6328 5.52691 3.6199 5.50912 3.61122C5.49134 3.60254 5.47168 3.59836 5.45188 3.59903H5.45216ZM14.5599 3.60533C14.5401 3.60462 14.5205 3.60876 14.5027 3.61739C14.4849 3.62601 14.4695 3.63886 14.4579 3.6548L13.6374 4.77746C13.628 4.79025 13.6213 4.80474 13.6176 4.82011C13.6139 4.83548 13.6132 4.85143 13.6157 4.86704C13.6182 4.88266 13.6238 4.89763 13.632 4.91111C13.6403 4.92459 13.6512 4.93631 13.6641 4.94561C13.6769 4.9549 13.6915 4.96158 13.7069 4.96528C13.7224 4.96897 13.7384 4.9696 13.7541 4.96713C13.7698 4.96466 13.7848 4.95914 13.7984 4.95089C13.8119 4.94263 13.8237 4.9318 13.833 4.91901L14.6536 3.79634C14.6665 3.77872 14.6744 3.7579 14.6764 3.73613C14.6784 3.71436 14.6743 3.69247 14.6647 3.67282C14.6551 3.65317 14.6403 3.6365 14.6219 3.6246C14.6035 3.61271 14.5821 3.60604 14.5602 3.60533H14.5599ZM4.83416 4.1149C4.81022 4.11351 4.78641 4.11926 4.76576 4.1314C4.74512 4.14354 4.72857 4.16153 4.71825 4.18307C4.70792 4.20462 4.70427 4.22873 4.70777 4.25234C4.71128 4.27595 4.72177 4.29799 4.73791 4.31564L5.13038 4.74973C5.141 4.76148 5.15384 4.77104 5.16817 4.77785C5.1825 4.78466 5.19804 4.7886 5.21391 4.78944C5.22977 4.79027 5.24564 4.78799 5.26061 4.78272C5.27559 4.77746 5.28937 4.7693 5.30118 4.75873C5.31299 4.74816 5.32259 4.73538 5.32944 4.72112C5.33629 4.70685 5.34024 4.69138 5.34108 4.6756C5.34192 4.65981 5.33963 4.64402 5.33434 4.62911C5.32905 4.61421 5.32085 4.60049 5.31023 4.58873L4.91748 4.15465C4.90692 4.14285 4.89413 4.13324 4.87983 4.12637C4.86553 4.1195 4.85001 4.1155 4.83416 4.11461V4.1149ZM15.1704 4.11576C15.1546 4.11659 15.139 4.12053 15.1247 4.12735C15.1103 4.13417 15.0975 4.14374 15.0868 4.15551L14.6941 4.58959C14.6835 4.60134 14.6753 4.61506 14.67 4.62997C14.6647 4.64487 14.6624 4.66067 14.6632 4.67646C14.6641 4.69224 14.668 4.70771 14.6749 4.72197C14.6817 4.73624 14.6913 4.74902 14.7031 4.75959C14.7149 4.77016 14.7287 4.77831 14.7437 4.78358C14.7587 4.78885 14.7745 4.79113 14.7904 4.7903C14.8063 4.78946 14.8218 4.78552 14.8361 4.77871C14.8505 4.77189 14.8633 4.76234 14.8739 4.75058L15.2664 4.3165C15.2825 4.29887 15.293 4.27686 15.2965 4.25327C15.3 4.22969 15.2964 4.2056 15.2861 4.18408C15.2758 4.16255 15.2593 4.14456 15.2387 4.13239C15.2181 4.12022 15.1944 4.11443 15.1704 4.11576ZM4.24201 4.6811C4.21806 4.68221 4.19499 4.69039 4.17573 4.70461C4.15648 4.71883 4.14192 4.73843 4.1339 4.76092C4.12589 4.78341 4.12478 4.80776 4.13073 4.83088C4.13668 4.85399 4.14942 4.87482 4.16731 4.8907L5.20422 5.81978C5.21602 5.83035 5.22981 5.8385 5.24479 5.84377C5.25976 5.84904 5.27563 5.85132 5.29149 5.85048C5.30735 5.84964 5.32289 5.84571 5.33723 5.83889C5.35156 5.83208 5.3644 5.82252 5.37502 5.81077C5.38564 5.79901 5.39383 5.78529 5.39913 5.77039C5.40442 5.75548 5.40671 5.73969 5.40587 5.7239C5.40503 5.70812 5.40107 5.69265 5.39423 5.67839C5.38738 5.66412 5.37778 5.65134 5.36597 5.64077L4.32907 4.71198C4.31727 4.70136 4.30348 4.69316 4.28849 4.68786C4.27351 4.68256 4.25761 4.68026 4.24173 4.6811H4.24201ZM15.7655 4.6851C15.7496 4.68425 15.7337 4.68654 15.7187 4.69184C15.7037 4.69714 15.6899 4.70535 15.6781 4.71598L14.6409 5.6442C14.6291 5.65475 14.6195 5.66752 14.6127 5.68176C14.6058 5.69601 14.6018 5.71146 14.601 5.72723C14.6001 5.74301 14.6024 5.75879 14.6077 5.77369C14.613 5.78859 14.6211 5.8023 14.6317 5.81406C14.6423 5.82581 14.6552 5.83537 14.6695 5.84219C14.6838 5.84901 14.6993 5.85296 14.7152 5.85381C14.731 5.85466 14.7469 5.8524 14.7618 5.84715C14.7768 5.84189 14.7906 5.83376 14.8024 5.82321L15.8396 4.89499C15.8576 4.87916 15.8704 4.85837 15.8764 4.83525C15.8824 4.81214 15.8814 4.78776 15.8735 4.76523C15.8655 4.7427 15.851 4.72305 15.8317 4.70877C15.8125 4.6945 15.7894 4.68626 15.7655 4.6851ZM3.74956 5.31134C3.72353 5.31018 3.69783 5.31744 3.67628 5.33203C3.65474 5.34662 3.63852 5.36775 3.63005 5.39228C3.62158 5.4168 3.62131 5.44339 3.62928 5.46808C3.63726 5.49277 3.65304 5.51423 3.67429 5.52924L4.14892 5.87239C4.16177 5.88169 4.17633 5.88837 4.19177 5.89207C4.20722 5.89576 4.22324 5.89639 4.23893 5.89392C4.25461 5.89145 4.26966 5.88593 4.2832 5.87767C4.29675 5.86942 4.30852 5.85858 4.31786 5.8458C4.3272 5.83301 4.33392 5.81852 4.33763 5.80315C4.34134 5.78778 4.34197 5.77183 4.33949 5.75622C4.33701 5.74061 4.33146 5.72563 4.32317 5.71215C4.31487 5.69867 4.30399 5.68695 4.29114 5.67766L3.81651 5.33451C3.79702 5.32029 3.7737 5.31222 3.74956 5.31134ZM16.2576 5.31563C16.2335 5.31645 16.2102 5.32441 16.1907 5.33851L15.7158 5.68166C15.7029 5.69093 15.692 5.70264 15.6837 5.7161C15.6754 5.72956 15.6699 5.74452 15.6674 5.76012C15.6649 5.77572 15.6655 5.79166 15.6692 5.80702C15.6729 5.82238 15.6796 5.83687 15.6889 5.84966C15.6982 5.86245 15.71 5.87328 15.7235 5.88154C15.737 5.88981 15.7521 5.89534 15.7677 5.89782C15.7834 5.9003 15.7994 5.89969 15.8148 5.89601C15.8303 5.89234 15.8448 5.88567 15.8577 5.8764L16.3326 5.53353C16.3538 5.51853 16.3696 5.4971 16.3776 5.47244C16.3856 5.44778 16.3853 5.42122 16.3769 5.39671C16.3684 5.3722 16.3523 5.35107 16.3308 5.33646C16.3093 5.32184 16.2836 5.31454 16.2576 5.31563ZM3.28929 5.98363C3.26332 5.98525 3.23858 5.99519 3.21874 6.01195C3.19891 6.02872 3.18505 6.05141 3.17924 6.07665C3.17342 6.10189 3.17596 6.12833 3.18647 6.15202C3.19699 6.17571 3.21491 6.19538 3.23758 6.20811L4.44514 6.90241C4.47295 6.91837 4.506 6.92269 4.53701 6.9144C4.56802 6.90612 4.59445 6.88591 4.61049 6.85823C4.62653 6.83055 4.63086 6.79766 4.62254 6.7668C4.61421 6.73593 4.59391 6.70963 4.5661 6.69366L3.35825 5.99993C3.33739 5.98785 3.31337 5.98227 3.28929 5.98392V5.98363ZM16.7144 5.98363C16.6904 5.98193 16.6663 5.98751 16.6455 5.99964L15.4374 6.69395C15.4236 6.70183 15.4115 6.71234 15.4019 6.72486C15.3922 6.73739 15.3851 6.75168 15.381 6.76694C15.3769 6.78219 15.3758 6.79811 15.3778 6.81377C15.3799 6.82943 15.385 6.84454 15.393 6.85823C15.4009 6.87192 15.4114 6.88392 15.424 6.89355C15.4366 6.90317 15.451 6.91024 15.4663 6.91434C15.4816 6.91845 15.4976 6.9195 15.5134 6.91746C15.5291 6.91541 15.5443 6.9103 15.558 6.90241L16.7665 6.20811C16.7891 6.19537 16.8071 6.17567 16.8176 6.15196C16.8281 6.12824 16.8306 6.10178 16.8247 6.07653C16.8189 6.05127 16.805 6.02858 16.7851 6.01184C16.7652 5.99509 16.7404 5.9852 16.7144 5.98363ZM2.94078 6.70052C2.91262 6.69952 2.885 6.70835 2.86269 6.72549C2.84039 6.74263 2.82482 6.767 2.81868 6.79437C2.81254 6.82174 2.81621 6.85039 2.82907 6.87535C2.84193 6.9003 2.86315 6.91999 2.88907 6.93101L3.42519 7.16892C3.45453 7.18193 3.48785 7.1828 3.51784 7.17135C3.54782 7.1599 3.57201 7.13707 3.58508 7.10787C3.59815 7.07867 3.59902 7.0455 3.58752 7.01566C3.57602 6.98581 3.55307 6.96174 3.52374 6.94873L2.9879 6.7111C2.97316 6.70449 2.95724 6.70089 2.94107 6.70052H2.94078ZM17.0647 6.70567C17.0484 6.70591 17.0324 6.70941 17.0176 6.71597L16.4814 6.95331C16.4521 6.96632 16.4292 6.99039 16.4177 7.02023C16.4062 7.05008 16.407 7.08325 16.4201 7.11244C16.4332 7.14164 16.4574 7.16448 16.4873 7.17593C16.5173 7.18738 16.5507 7.1865 16.58 7.1735L17.1161 6.93615C17.142 6.92514 17.1632 6.90545 17.1761 6.88049C17.189 6.85554 17.1926 6.82689 17.1865 6.79952C17.1804 6.77215 17.1648 6.74778 17.1425 6.73064C17.1202 6.7135 17.0926 6.70466 17.0644 6.70567H17.0647ZM2.63106 7.44944C2.60302 7.45148 2.57658 7.46319 2.55629 7.48257C2.53601 7.50194 2.52315 7.52775 2.51995 7.55555C2.51675 7.58335 2.5234 7.61139 2.53876 7.63483C2.55411 7.65827 2.57721 7.67563 2.60406 7.68393L3.92999 8.11401C3.94509 8.11891 3.961 8.1208 3.97683 8.11958C3.99265 8.11836 4.00809 8.11405 4.02224 8.10689C4.03639 8.09974 4.04899 8.08988 4.05932 8.07788C4.06964 8.06587 4.07749 8.05196 4.08241 8.03694C4.08734 8.02192 4.08924 8.00608 4.08801 7.99033C4.08679 7.97458 4.08245 7.95922 4.07526 7.94513C4.06807 7.93105 4.05817 7.91851 4.04611 7.90823C4.03405 7.89796 4.02007 7.89014 4.00498 7.88524L2.67876 7.45488C2.6634 7.44982 2.64719 7.44787 2.63106 7.44916V7.44944ZM17.3744 7.45459C17.3582 7.45307 17.3419 7.45492 17.3264 7.46003L15.9999 7.88896C15.9848 7.89384 15.9708 7.90164 15.9587 7.9119C15.9466 7.92217 15.9367 7.9347 15.9295 7.94879C15.9223 7.96288 15.9179 7.97824 15.9167 7.994C15.9154 8.00977 15.9173 8.02562 15.9222 8.04066C15.9271 8.0557 15.9349 8.06963 15.9452 8.08166C15.9556 8.09369 15.9681 8.10357 15.9823 8.11075C15.9965 8.11794 16.0119 8.12228 16.0277 8.12352C16.0436 8.12477 16.0595 8.12289 16.0746 8.11801L17.4011 7.68908C17.428 7.6808 17.4511 7.66346 17.4664 7.64004C17.4818 7.61663 17.4885 7.58861 17.4853 7.56082C17.4821 7.53304 17.4693 7.50722 17.4491 7.48783C17.4288 7.46843 17.4024 7.45668 17.3744 7.45459ZM2.43799 8.23554C2.4075 8.23445 2.37773 8.24489 2.35466 8.26476C2.33159 8.28464 2.31695 8.31247 2.31367 8.34266C2.31039 8.37285 2.31873 8.40316 2.337 8.42748C2.35527 8.4518 2.38211 8.46833 2.41213 8.47374L2.98589 8.59499C3.01725 8.60162 3.04997 8.59559 3.07685 8.57822C3.10374 8.56084 3.12259 8.53355 3.12926 8.50234C3.13593 8.47113 3.12986 8.43856 3.11241 8.4118C3.09495 8.38504 3.06753 8.36628 3.03617 8.35965L2.46241 8.23811C2.45438 8.23642 2.4462 8.23556 2.43799 8.23554ZM17.5663 8.23668C17.5581 8.23687 17.55 8.23773 17.5419 8.23926L16.9679 8.3605C16.9365 8.36714 16.9091 8.3859 16.8916 8.41266C16.8742 8.43942 16.8681 8.47199 16.8748 8.5032C16.8814 8.5344 16.9003 8.5617 16.9272 8.57907C16.9541 8.59645 16.9868 8.60248 17.0181 8.59585L17.5922 8.47489C17.6222 8.46947 17.649 8.45294 17.6673 8.42862C17.6856 8.4043 17.6939 8.374 17.6906 8.34381C17.6874 8.31362 17.6727 8.28578 17.6497 8.26591C17.6266 8.24603 17.5968 8.23559 17.5663 8.23668ZM2.29175 9.0265C2.26125 9.02848 2.23264 9.04192 2.21171 9.06408C2.19077 9.08625 2.17907 9.11549 2.17896 9.14591C2.17885 9.17633 2.19034 9.20566 2.21112 9.22798C2.23189 9.25029 2.2604 9.26393 2.29089 9.26613L3.67802 9.41197C3.69381 9.41362 3.70977 9.41216 3.725 9.40767C3.74022 9.40319 3.75441 9.39576 3.76675 9.38581C3.77909 9.37587 3.78934 9.3636 3.79691 9.34972C3.80449 9.33583 3.80924 9.32059 3.8109 9.30488C3.81256 9.28916 3.8111 9.27327 3.80659 9.25812C3.80208 9.24297 3.79462 9.22885 3.78463 9.21657C3.77463 9.20429 3.76231 9.19409 3.74836 9.18655C3.7344 9.17901 3.7191 9.17427 3.70331 9.17262L2.31617 9.02678C2.30806 9.02589 2.29988 9.02579 2.29175 9.0265ZM17.7134 9.03679C17.7052 9.03588 17.6969 9.03588 17.6887 9.03679L16.3013 9.18091C16.2855 9.18257 16.2702 9.1873 16.2562 9.19485C16.2422 9.2024 16.2299 9.21261 16.2199 9.2249C16.2099 9.2372 16.2024 9.25133 16.1979 9.2665C16.1934 9.28167 16.1919 9.29758 16.1936 9.31331C16.1952 9.32905 16.2 9.3443 16.2076 9.35821C16.2151 9.37211 16.2254 9.38439 16.2378 9.39435C16.2501 9.40431 16.2643 9.41175 16.2795 9.41624C16.2948 9.42074 16.3108 9.4222 16.3266 9.42055L17.7137 9.27642C17.7442 9.27429 17.7727 9.26072 17.7936 9.23846C17.8144 9.21619 17.826 9.18689 17.8259 9.15647C17.8259 9.12606 17.8142 9.09678 17.7934 9.07457C17.7725 9.05235 17.7439 9.03885 17.7134 9.03679ZM2.26819 9.83604C2.23611 9.83604 2.20534 9.84873 2.18266 9.8713C2.15998 9.89388 2.14723 9.9245 2.14723 9.95643C2.14723 9.98836 2.15998 10.019 2.18266 10.0416C2.20534 10.0641 2.23611 10.0768 2.26819 10.0768H2.85488C2.88696 10.0768 2.91772 10.0641 2.94041 10.0416C2.96309 10.019 2.97584 9.98836 2.97584 9.95643C2.97584 9.9245 2.96309 9.89388 2.94041 9.8713C2.91772 9.84873 2.88696 9.83604 2.85488 9.83604H2.26819ZM17.1489 9.83604C17.1168 9.83604 17.086 9.84873 17.0633 9.8713C17.0406 9.89388 17.0279 9.9245 17.0279 9.95643C17.0279 9.98836 17.0406 10.019 17.0633 10.0416C17.086 10.0641 17.1168 10.0768 17.1489 10.0768H17.7355C17.7676 10.0768 17.7984 10.0641 17.8211 10.0416C17.8438 10.019 17.8565 9.98836 17.8565 9.95643C17.8565 9.9245 17.8438 9.89388 17.8211 9.8713C17.7984 9.84873 17.7676 9.83604 17.7355 9.83604H17.1489ZM3.70187 10.492C3.69366 10.4911 3.68537 10.4911 3.67716 10.492L2.28974 10.6364C2.25785 10.6398 2.2286 10.6556 2.20842 10.6804C2.18824 10.7052 2.17879 10.737 2.18214 10.7687C2.18549 10.8004 2.20138 10.8295 2.2263 10.8496C2.25122 10.8697 2.28313 10.8791 2.31502 10.8758L3.70244 10.7317C3.73293 10.7295 3.76145 10.7159 3.78225 10.6936C3.80305 10.6713 3.81458 10.642 3.81451 10.6116C3.81444 10.5812 3.80277 10.5519 3.78186 10.5297C3.76095 10.5075 3.73237 10.4941 3.70187 10.492ZM16.3013 10.5006C16.2708 10.5026 16.2422 10.516 16.2213 10.5382C16.2003 10.5604 16.1886 10.5896 16.1885 10.62C16.1884 10.6504 16.1999 10.6798 16.2207 10.7021C16.2414 10.7244 16.2699 10.738 16.3004 10.7402L17.6876 10.8861C17.7034 10.8877 17.7193 10.8863 17.7345 10.8818C17.7498 10.8773 17.764 10.8699 17.7763 10.8599C17.7886 10.85 17.7989 10.8377 17.8065 10.8238C17.814 10.8099 17.8188 10.7947 17.8204 10.779C17.8221 10.7633 17.8206 10.7474 17.8161 10.7322C17.8116 10.7171 17.8042 10.703 17.7942 10.6907C17.7842 10.6784 17.7719 10.6682 17.7579 10.6607C17.744 10.6531 17.7286 10.6484 17.7129 10.6467L16.3257 10.5009C16.3176 10.5001 16.3094 10.5001 16.3013 10.5009V10.5006ZM3.01031 11.3139C3.00211 11.3139 2.99393 11.3148 2.98589 11.3164L2.41184 11.4377C2.3963 11.441 2.38156 11.4473 2.36846 11.4562C2.35536 11.4652 2.34416 11.4766 2.33551 11.4899C2.32685 11.5032 2.3209 11.518 2.318 11.5335C2.3151 11.5491 2.31531 11.5651 2.31861 11.5805C2.32528 11.6118 2.34415 11.6391 2.37106 11.6565C2.38439 11.6651 2.39929 11.671 2.41491 11.6739C2.43054 11.6768 2.44658 11.6766 2.46212 11.6733L3.03617 11.5518C3.06619 11.5464 3.09304 11.5298 3.11131 11.5055C3.12957 11.4812 3.13791 11.4509 3.13463 11.4207C3.13135 11.3905 3.11671 11.3627 3.09364 11.3428C3.07058 11.3229 3.0408 11.3125 3.01031 11.3136V11.3139ZM16.9934 11.315C16.9629 11.3139 16.9332 11.3244 16.9101 11.3442C16.887 11.3641 16.8724 11.3919 16.8691 11.4221C16.8658 11.4523 16.8742 11.4826 16.8924 11.507C16.9107 11.5313 16.9375 11.5478 16.9676 11.5532L17.5413 11.6745C17.5727 11.6811 17.6054 11.6751 17.6323 11.6577C17.6592 11.6403 17.678 11.613 17.6847 11.5818C17.6914 11.5506 17.6853 11.518 17.6678 11.4913C17.6504 11.4645 17.623 11.4458 17.5916 11.4391L17.0178 11.3176C17.0098 11.3159 17.0016 11.315 16.9934 11.315ZM3.97654 11.7891C3.96034 11.7876 3.944 11.7895 3.92856 11.7946L2.60204 12.2235C2.57149 12.2334 2.54612 12.2549 2.53152 12.2834C2.51692 12.3118 2.51428 12.3449 2.52418 12.3753C2.53409 12.4058 2.55573 12.431 2.58434 12.4455C2.61295 12.4601 2.64619 12.4627 2.67675 12.4528L4.00355 12.0236C4.03039 12.0153 4.05349 11.9979 4.06885 11.9745C4.0842 11.9511 4.09085 11.923 4.08765 11.8952C4.08445 11.8674 4.07159 11.8416 4.05131 11.8222C4.03102 11.8029 4.00458 11.7912 3.97654 11.7891ZM16.0255 11.7934C15.9974 11.7955 15.971 11.8072 15.9507 11.8265C15.9304 11.8459 15.9176 11.8717 15.9144 11.8995C15.9112 11.9273 15.9178 11.9554 15.9332 11.9788C15.9485 12.0022 15.9716 12.0196 15.9985 12.0279L17.3244 12.458C17.3395 12.4629 17.3554 12.4648 17.3712 12.4636C17.3871 12.4623 17.4025 12.458 17.4167 12.4509C17.4308 12.4437 17.4434 12.4339 17.4537 12.4218C17.4641 12.4098 17.4719 12.3959 17.4768 12.3809C17.4817 12.3659 17.4837 12.3501 17.4824 12.3343C17.4812 12.3186 17.4769 12.3032 17.4697 12.2891C17.4625 12.275 17.4526 12.2625 17.4405 12.2522C17.4285 12.2419 17.4145 12.2341 17.3994 12.2292L16.0732 11.7989C16.0578 11.7938 16.0416 11.7918 16.0255 11.7931V11.7934ZM3.47001 12.7291C3.45384 12.7294 3.43792 12.733 3.42318 12.7396L2.88706 12.977C2.85772 12.99 2.83478 13.0141 2.82327 13.0439C2.81177 13.0738 2.81265 13.1069 2.82572 13.1361C2.83878 13.1653 2.86297 13.1882 2.89296 13.1996C2.92294 13.2111 2.95627 13.2102 2.9856 13.1972L3.52173 12.9595C3.54764 12.9485 3.56887 12.9288 3.58172 12.9039C3.59458 12.8789 3.59826 12.8503 3.59211 12.8229C3.58597 12.7955 3.5704 12.7712 3.5481 12.754C3.5258 12.7369 3.49817 12.7281 3.47001 12.7291ZM16.5311 12.7336C16.5031 12.7328 16.4757 12.7417 16.4535 12.7588C16.4314 12.776 16.4159 12.8002 16.4098 12.8275C16.4036 12.8547 16.4073 12.8832 16.42 12.9081C16.4327 12.933 16.4537 12.9527 16.4794 12.9638L17.0153 13.202C17.0298 13.2085 17.0454 13.212 17.0613 13.2124C17.0772 13.2128 17.0931 13.2101 17.1079 13.2045C17.1228 13.1988 17.1363 13.1903 17.1479 13.1794C17.1594 13.1685 17.1687 13.1554 17.1752 13.141C17.1816 13.1265 17.1852 13.1109 17.1856 13.0951C17.186 13.0793 17.1833 13.0636 17.1776 13.0488C17.1719 13.034 17.1633 13.0205 17.1524 13.009C17.1414 12.9975 17.1283 12.9883 17.1138 12.9819L16.578 12.7442C16.5632 12.7376 16.5473 12.734 16.5311 12.7336ZM4.51438 12.9944C4.4903 12.9927 4.46627 12.9983 4.44543 13.0105L3.23729 13.7048C3.20951 13.7207 3.18923 13.7469 3.18091 13.7777C3.17258 13.8086 3.1769 13.8414 3.1929 13.869C3.2089 13.8967 3.23528 13.9169 3.26623 13.9252C3.29719 13.9334 3.33018 13.9291 3.35796 13.9132L4.56639 13.2189C4.58906 13.2062 4.60699 13.1865 4.6175 13.1628C4.628 13.139 4.63051 13.1126 4.62466 13.0873C4.61881 13.0621 4.60491 13.0394 4.58504 13.0226C4.56516 13.0059 4.54037 12.996 4.51438 12.9944ZM15.4896 12.9944C15.4637 12.996 15.4389 13.0059 15.419 13.0226C15.3991 13.0394 15.3852 13.0621 15.3794 13.0873C15.3735 13.1126 15.376 13.139 15.3865 13.1628C15.397 13.1865 15.415 13.2062 15.4376 13.2189L16.6455 13.9132C16.6593 13.9211 16.6745 13.9262 16.6902 13.9283C16.706 13.9304 16.722 13.9293 16.7374 13.9252C16.7527 13.9211 16.7671 13.914 16.7797 13.9044C16.7923 13.8948 16.8029 13.8827 16.8108 13.869C16.8188 13.8553 16.8239 13.8402 16.826 13.8245C16.8281 13.8088 16.827 13.7929 16.8229 13.7776C16.8188 13.7623 16.8117 13.748 16.802 13.7354C16.7923 13.7229 16.7802 13.7124 16.7665 13.7045L15.5583 13.0105C15.5375 12.9984 15.5134 12.9928 15.4894 12.9944H15.4896ZM4.21271 14.0133C4.1887 14.0142 4.16549 14.0221 4.14605 14.0362L3.67113 14.3793C3.6583 14.3886 3.64743 14.4003 3.63915 14.4138C3.63086 14.4272 3.62532 14.4422 3.62284 14.4577C3.62036 14.4733 3.62098 14.4893 3.62469 14.5046C3.62839 14.5199 3.63509 14.5344 3.64441 14.5472C3.65373 14.56 3.66548 14.5708 3.679 14.579C3.69252 14.5873 3.70754 14.5928 3.7232 14.5952C3.73886 14.5977 3.75486 14.5971 3.77027 14.5934C3.78569 14.5897 3.80023 14.5831 3.81306 14.5738L4.28798 14.2309C4.30907 14.2159 4.32472 14.1945 4.33261 14.1699C4.34051 14.1453 4.34022 14.1188 4.33181 14.0943C4.32339 14.0699 4.30728 14.0488 4.28588 14.0342C4.26448 14.0196 4.23892 14.0123 4.21299 14.0133H4.21271ZM15.7882 14.0173C15.7621 14.0161 15.7364 14.0234 15.7149 14.038C15.6933 14.0526 15.6771 14.0737 15.6686 14.0982C15.6602 14.1228 15.6599 14.1494 15.6679 14.174C15.6759 14.1987 15.6916 14.2202 15.7129 14.2352L16.1875 14.5784C16.2135 14.5971 16.2458 14.6049 16.2775 14.5999C16.3092 14.5949 16.3376 14.5776 16.3565 14.5518C16.3753 14.5259 16.3831 14.4937 16.3781 14.4622C16.3731 14.4306 16.3557 14.4024 16.3297 14.3836L15.8551 14.0405C15.8356 14.0263 15.8123 14.0182 15.7882 14.0173ZM5.28868 14.0588C5.2728 14.0579 5.25689 14.0602 5.2419 14.0655C5.22691 14.0708 5.21312 14.079 5.20134 14.0897L4.16415 15.0179C4.1403 15.0392 4.12593 15.069 4.12421 15.1009C4.12249 15.1328 4.13355 15.164 4.15496 15.1877C4.17637 15.2115 4.20638 15.2258 4.23838 15.2275C4.27039 15.2292 4.30177 15.2182 4.32562 15.1969L5.36281 14.2687C5.38078 14.2528 5.39359 14.232 5.39963 14.2089C5.40566 14.1858 5.40463 14.1614 5.39667 14.1389C5.38872 14.1164 5.37419 14.0967 5.35496 14.0824C5.33572 14.0682 5.31265 14.0599 5.28868 14.0588ZM14.7125 14.0622C14.6886 14.0634 14.6656 14.0717 14.6465 14.0859C14.6273 14.1002 14.6128 14.1197 14.6048 14.1422C14.5968 14.1646 14.5957 14.1889 14.6015 14.212C14.6074 14.235 14.62 14.2559 14.6378 14.2718L15.6744 15.2009C15.6862 15.2115 15.7 15.2196 15.715 15.2249C15.7299 15.2302 15.7458 15.2325 15.7617 15.2317C15.7776 15.2309 15.7931 15.2269 15.8075 15.2201C15.8218 15.2133 15.8347 15.2038 15.8453 15.192C15.856 15.1803 15.8642 15.1665 15.8695 15.1516C15.8748 15.1367 15.8771 15.1209 15.8763 15.1051C15.8755 15.0893 15.8715 15.0738 15.8647 15.0595C15.8578 15.0453 15.8482 15.0325 15.8364 15.0219L14.7995 14.0931C14.7878 14.0825 14.774 14.0743 14.7591 14.069C14.7441 14.0637 14.7283 14.0614 14.7125 14.0622ZM6.27272 14.9438C6.25288 14.9431 6.23316 14.9472 6.21532 14.9559C6.19747 14.9646 6.18206 14.9775 6.17044 14.9936L5.34988 16.1162C5.33102 16.142 5.32323 16.1742 5.32821 16.2057C5.3332 16.2372 5.35055 16.2655 5.37646 16.2842C5.40237 16.303 5.4347 16.3108 5.46636 16.3058C5.49802 16.3008 5.52639 16.2836 5.54525 16.2578L6.3661 15.1351C6.37916 15.1175 6.38712 15.0966 6.38913 15.0748C6.39114 15.053 6.38712 15.0311 6.37751 15.0114C6.36789 14.9917 6.35304 14.975 6.33458 14.9631C6.31611 14.9511 6.29472 14.9445 6.27272 14.9438ZM13.7244 14.949C13.7025 14.9497 13.6811 14.9563 13.6627 14.9682C13.6442 14.9801 13.6294 14.9967 13.6197 15.0163C13.6101 15.036 13.606 15.0579 13.6079 15.0796C13.6097 15.1014 13.6176 15.1223 13.6305 15.14L14.4496 16.2638C14.4589 16.2766 14.4707 16.2874 14.4842 16.2957C14.4977 16.3039 14.5127 16.3095 14.5284 16.3119C14.5441 16.3144 14.5601 16.3138 14.5755 16.3101C14.591 16.3065 14.6055 16.2998 14.6184 16.2905C14.6312 16.2812 14.6421 16.2695 14.6504 16.2561C14.6587 16.2426 14.6643 16.2277 14.6668 16.2121C14.6693 16.1965 14.6686 16.1805 14.6649 16.1652C14.6613 16.1498 14.6546 16.1353 14.6452 16.1225L13.8264 14.9987C13.8148 14.9827 13.7994 14.9698 13.7817 14.9611C13.7639 14.9525 13.7442 14.9483 13.7244 14.949ZM5.21341 15.1222C5.19751 15.1231 5.18194 15.1271 5.1676 15.134C5.15325 15.1408 5.14041 15.1505 5.1298 15.1623L4.73705 15.5961C4.72643 15.6078 4.71824 15.6215 4.71294 15.6365C4.70765 15.6514 4.70536 15.6672 4.7062 15.6829C4.70704 15.6987 4.711 15.7142 4.71784 15.7285C4.72469 15.7427 4.73429 15.7555 4.7461 15.7661C4.75791 15.7766 4.77169 15.7848 4.78667 15.7901C4.80164 15.7953 4.81752 15.7976 4.83338 15.7968C4.84924 15.7959 4.86478 15.792 4.87911 15.7852C4.89344 15.7784 4.90628 15.7688 4.91691 15.7571L5.30937 15.3233C5.32559 15.3056 5.33616 15.2836 5.33972 15.26C5.34329 15.2363 5.33969 15.2122 5.32939 15.1906C5.31908 15.169 5.30254 15.151 5.28188 15.1388C5.26122 15.1266 5.23738 15.1209 5.21341 15.1222ZM14.7895 15.1228C14.7655 15.1214 14.7417 15.1272 14.7211 15.1393C14.7004 15.1515 14.6839 15.1694 14.6736 15.191C14.6632 15.2125 14.6596 15.2366 14.6631 15.2603C14.6666 15.2839 14.6771 15.3059 14.6932 15.3236L15.086 15.7579C15.0966 15.7697 15.1094 15.7792 15.1238 15.786C15.1381 15.7929 15.1536 15.7968 15.1695 15.7976C15.1854 15.7985 15.2012 15.7962 15.2162 15.7909C15.2312 15.7857 15.245 15.7775 15.2568 15.7669C15.2686 15.7564 15.2782 15.7436 15.285 15.7293C15.2919 15.7151 15.2958 15.6996 15.2967 15.6838C15.2975 15.668 15.2952 15.6522 15.2899 15.6373C15.2846 15.6224 15.2764 15.6087 15.2658 15.5969L14.8731 15.1626C14.8625 15.1508 14.8497 15.1413 14.8354 15.1344C14.8211 15.1276 14.8056 15.1237 14.7898 15.1228H14.7895ZM7.4188 15.6044C7.39499 15.6038 7.37155 15.6103 7.35145 15.6231C7.33135 15.6358 7.31549 15.6542 7.30589 15.6759L6.73759 16.9435C6.73112 16.9579 6.72757 16.9735 6.72714 16.9893C6.72672 17.0051 6.72942 17.0208 6.73511 17.0356C6.74079 17.0504 6.74934 17.0639 6.76026 17.0754C6.77119 17.0868 6.78428 17.0961 6.79879 17.1025C6.8133 17.1089 6.82894 17.1125 6.84481 17.1129C6.86069 17.1133 6.8765 17.1106 6.89134 17.105C6.90617 17.0993 6.91974 17.0908 6.93127 17.0799C6.9428 17.0691 6.95206 17.056 6.95853 17.0416L7.52683 15.7739C7.53508 15.7558 7.53866 15.7359 7.53726 15.716C7.53585 15.6962 7.52951 15.677 7.51879 15.6601C7.50808 15.6433 7.49333 15.6294 7.47588 15.6197C7.45842 15.6099 7.43881 15.6047 7.4188 15.6044ZM12.5778 15.6078C12.5577 15.608 12.5381 15.6132 12.5206 15.6229C12.5031 15.6326 12.4883 15.6465 12.4775 15.6633C12.4668 15.68 12.4603 15.6992 12.4589 15.7191C12.4574 15.739 12.4609 15.7589 12.4691 15.7771L13.0357 17.0459C13.0422 17.0603 13.0514 17.0734 13.0629 17.0843C13.0745 17.0952 13.088 17.1037 13.1029 17.1094C13.1177 17.1151 13.1335 17.1178 13.1494 17.1174C13.1653 17.117 13.1809 17.1135 13.1955 17.1071C13.21 17.1006 13.2231 17.0914 13.2341 17.08C13.245 17.0685 13.2536 17.055 13.2593 17.0402C13.265 17.0255 13.2677 17.0097 13.2673 16.9939C13.2669 16.9781 13.2634 16.9625 13.257 16.9481L12.6904 15.6793C12.6808 15.6577 12.6649 15.6393 12.6449 15.6266C12.6249 15.6139 12.6015 15.6074 12.5778 15.6078ZM6.42011 15.9964C6.40034 15.9978 6.38122 16.004 6.36443 16.0144C6.34763 16.0249 6.3337 16.0393 6.32386 16.0565L6.03023 16.562C6.01419 16.5897 6.00986 16.6226 6.01818 16.6535C6.02651 16.6843 6.04681 16.7106 6.07462 16.7266C6.10244 16.7426 6.13548 16.7469 6.16649 16.7386C6.1975 16.7303 6.22393 16.7101 6.23997 16.6824L6.53303 16.1769C6.54413 16.158 6.54984 16.1364 6.54953 16.1145C6.54923 16.0927 6.54293 16.0713 6.5313 16.0527C6.51968 16.0341 6.50318 16.0191 6.48358 16.0091C6.46399 15.9992 6.44204 15.9948 6.42011 15.9964ZM13.5839 15.9964C13.562 15.9948 13.5401 15.9992 13.5205 16.0091C13.5009 16.0189 13.4844 16.034 13.4727 16.0525C13.4611 16.071 13.4547 16.0924 13.4544 16.1143C13.454 16.1361 13.4597 16.1577 13.4707 16.1766L13.7638 16.6827C13.7798 16.7104 13.8063 16.7306 13.8374 16.7388C13.8684 16.7471 13.9014 16.7427 13.9293 16.7267C13.9571 16.7107 13.9774 16.6844 13.9857 16.6535C13.994 16.6226 13.9896 16.5897 13.9735 16.562L13.6802 16.0565C13.6703 16.0394 13.6564 16.0249 13.6396 16.0145C13.6228 16.004 13.6037 15.9978 13.5839 15.9964ZM8.68412 16.0144C8.65622 16.0142 8.62908 16.0235 8.60734 16.041C8.5856 16.0584 8.5706 16.0828 8.56489 16.1099L8.27499 17.4682C8.26836 17.4995 8.27447 17.5321 8.29199 17.5588C8.3095 17.5856 8.33697 17.6043 8.36837 17.6109C8.39976 17.6175 8.4325 17.6114 8.45939 17.594C8.48628 17.5766 8.5051 17.5492 8.51173 17.518L8.80163 16.1597C8.80535 16.1422 8.8051 16.1241 8.80091 16.1068C8.79672 16.0894 8.78869 16.0732 8.77741 16.0593C8.76612 16.0454 8.75187 16.0342 8.73568 16.0265C8.71949 16.0188 8.70178 16.0148 8.68383 16.0147L8.68412 16.0144ZM11.3159 16.0153C11.2979 16.0153 11.2802 16.0193 11.264 16.0271C11.2477 16.0348 11.2335 16.046 11.2222 16.06C11.2109 16.0739 11.2029 16.0901 11.1987 16.1075C11.1945 16.1249 11.1943 16.1431 11.1981 16.1606L11.4871 17.5188C11.4904 17.5343 11.4967 17.549 11.5057 17.562C11.5147 17.575 11.5261 17.5862 11.5394 17.5948C11.5527 17.6034 11.5676 17.6093 11.5832 17.6122C11.5988 17.6151 11.6148 17.6149 11.6303 17.6116C11.6459 17.6084 11.6606 17.6021 11.6737 17.5932C11.6868 17.5842 11.698 17.5728 11.7066 17.5596C11.7153 17.5463 11.7212 17.5315 11.7241 17.516C11.7271 17.5005 11.7269 17.4845 11.7236 17.4691L11.4348 16.1108C11.4291 16.0837 11.4142 16.0593 11.3925 16.0419C11.3708 16.0245 11.3437 16.0151 11.3159 16.0153ZM10.002 16.1525C9.97001 16.1525 9.93932 16.1652 9.91669 16.1877C9.89406 16.2102 9.88134 16.2408 9.88134 16.2726V17.661C9.88134 17.6928 9.89406 17.7234 9.91669 17.7459C9.93932 17.7684 9.97001 17.7811 10.002 17.7811C10.034 17.7811 10.0647 17.7684 10.0873 17.7459C10.11 17.7234 10.1227 17.6928 10.1227 17.661V16.2726C10.1227 16.2408 10.11 16.2102 10.0873 16.1877C10.0647 16.1652 10.034 16.1525 10.002 16.1525ZM7.78197 16.6009C7.75826 16.6029 7.73569 16.6119 7.71708 16.6267C7.69847 16.6414 7.68466 16.6613 7.67738 16.6839L7.49609 17.2392C7.49119 17.2542 7.4893 17.27 7.49055 17.2858C7.49179 17.3015 7.49614 17.3169 7.50334 17.3309C7.51054 17.345 7.52046 17.3575 7.53253 17.3678C7.54459 17.3781 7.55857 17.3859 7.57366 17.3907C7.58876 17.3956 7.60467 17.3975 7.62049 17.3963C7.63631 17.395 7.65173 17.3907 7.66587 17.3835C7.68001 17.3764 7.69259 17.3665 7.7029 17.3545C7.71321 17.3425 7.72103 17.3286 7.72594 17.3135L7.90752 16.7582C7.9138 16.7393 7.91525 16.7191 7.91174 16.6995C7.90823 16.6799 7.89987 16.6614 7.88742 16.6458C7.87496 16.6302 7.8588 16.6179 7.84039 16.6101C7.82198 16.6023 7.8019 16.5991 7.78197 16.6009ZM12.2209 16.6012C12.201 16.5994 12.1809 16.6026 12.1625 16.6104C12.1441 16.6182 12.1279 16.6305 12.1155 16.6461C12.103 16.6617 12.0946 16.6801 12.0911 16.6998C12.0876 16.7194 12.0891 16.7396 12.0954 16.7585L12.2769 17.3138C12.2818 17.3288 12.2897 17.3427 12.3 17.3548C12.3103 17.3668 12.3229 17.3766 12.337 17.3838C12.3511 17.391 12.3666 17.3953 12.3824 17.3965C12.3982 17.3978 12.4141 17.3959 12.4292 17.391C12.4443 17.3861 12.4583 17.3784 12.4703 17.3681C12.4824 17.3578 12.4923 17.3453 12.4995 17.3312C12.5067 17.3172 12.5111 17.3018 12.5123 17.2861C12.5136 17.2703 12.5117 17.2545 12.5068 17.2395L12.3258 16.6841C12.3185 16.6616 12.3046 16.6416 12.286 16.6269C12.2673 16.6121 12.2447 16.6032 12.2209 16.6012ZM9.24294 16.9106C9.21523 16.9133 9.1893 16.9255 9.16956 16.945C9.14982 16.9645 9.13747 16.9903 9.13462 17.0179L9.07343 17.5986C9.06624 17.665 9.11422 17.7239 9.18088 17.731C9.24754 17.7382 9.30701 17.6901 9.3139 17.6238L9.3751 17.0433C9.37708 17.0255 9.37503 17.0075 9.36911 16.9906C9.36318 16.9736 9.35353 16.9583 9.34086 16.9455C9.32819 16.9328 9.31282 16.9231 9.29587 16.917C9.27893 16.911 9.26084 16.9088 9.24294 16.9106ZM10.7565 16.9112C10.7386 16.9094 10.7206 16.9116 10.7036 16.9176C10.6867 16.9236 10.6714 16.9333 10.6587 16.946C10.646 16.9587 10.6364 16.9741 10.6304 16.9909C10.6245 17.0078 10.6224 17.0258 10.6243 17.0436L10.6849 17.6244C10.6883 17.6561 10.7042 17.6852 10.7291 17.7053C10.754 17.7254 10.7859 17.7348 10.8178 17.7315C10.8497 17.7281 10.879 17.7123 10.8992 17.6875C10.9193 17.6627 10.9288 17.6309 10.9254 17.5992L10.8648 17.0187C10.862 16.9911 10.8497 16.9653 10.83 16.9457C10.8102 16.9261 10.7842 16.9139 10.7565 16.9112Z" fill="#F4F2F3"/>
<g opacity="0.409" filter="url(#filter1_f_35_2616)">
<path d="M15.6693 5.14162L9.05274 8.96772L4.86928 15.5227L10.9893 11.011L15.6693 5.14162Z" fill="black"/>
</g>
<path d="M10.9487 10.9438L9.05244 8.96702L15.7798 4.46263L10.9487 10.9438Z" fill="#FF5150"/>
<path d="M10.9478 10.9442L9.05158 8.96764L4.22017 15.4489L10.9478 10.9442Z" fill="#F1F1F1"/>
<path opacity="0.243" d="M4.22075 15.4509L10.9484 10.9465L15.7795 4.46527L4.22075 15.4509Z" fill="black"/>
<defs>
<filter id="filter0_f_35_2616" x="0.612362" y="1.66184" width="18.7799" height="18.0581" filterUnits="userSpaceOnUse" color-interpolation-filters="sRGB">
<feFlood flood-opacity="0" result="BackgroundImageFix"/>
<feBlend mode="normal" in="SourceGraphic" in2="BackgroundImageFix" result="shape"/>
<feGaussianBlur stdDeviation="0.359965" result="effect1_foregroundBlur_35_2616"/>
</filter>
<filter id="filter1_f_35_2616" x="4.66456" y="4.93691" width="11.2095" height="10.7905" filterUnits="userSpaceOnUse" color-interpolation-filters="sRGB">
<feFlood flood-opacity="0" result="BackgroundImageFix"/>
<feBlend mode="normal" in="SourceGraphic" in2="BackgroundImageFix" result="shape"/>
<feGaussianBlur stdDeviation="0.102357" result="effect1_foregroundBlur_35_2616"/>
</filter>
<linearGradient id="paint0_linear_35_2616" x1="10.0011" y1="18.9136" x2="10.0011" y2="0.998188" gradientUnits="userSpaceOnUse">
<stop stop-color="#BDBDBD"/>
<stop offset="1" stop-color="white"/>
</linearGradient>
<radialGradient id="paint1_radial_35_2616" cx="0" cy="0" r="1" gradientUnits="userSpaceOnUse" gradientTransform="translate(10.0369 8.75294) scale(8.99998 8.95759)">
<stop stop-color="#06C2E7"/>
<stop offset="0.25" stop-color="#0DB8EC"/>
<stop offset="0.5" stop-color="#12AEF1"/>
<stop offset="0.75" stop-color="#1F86F9"/>
<stop offset="1" stop-color="#107DDD"/>
</radialGradient>
</defs>
</svg>
