<svg width="25" height="25" viewBox="0 0 25 25" fill="none" xmlns="http://www.w3.org/2000/svg">
<g clip-path="url(#clip0_200_211593)">
<path opacity="0.9" d="M1.1582 15.3855C2.69203 19.647 6.74029 22.7036 11.4898 22.7036C17.543 22.7036 22.4787 17.7309 22.4787 11.602C22.4787 5.89629 18.2125 1.19255 12.7286 0.570312C19.2365 0.607317 24.5009 5.95005 24.5009 12.5353C24.5009 19.1435 19.1998 24.5005 12.6606 24.5005C7.09327 24.5005 2.42341 20.6176 1.1582 15.3855Z" fill="white"/>
<path d="M11.4889 22.7031C5.42239 22.7031 0.5 17.7165 0.5 11.6016C0.5 5.48665 5.42239 0.5 11.4889 0.5C17.5554 0.5 22.4778 5.47272 22.4778 11.6016C22.4778 17.7304 17.5421 22.7031 11.4889 22.7031ZM11.4889 1.14074C5.7816 1.14074 1.13858 5.83488 1.13858 11.6016C1.13858 17.3683 5.7816 22.0624 11.4889 22.0624C17.1962 22.0624 21.8392 17.3683 21.8392 11.6016C21.8392 5.83488 17.1962 1.14074 11.4889 1.14074Z" fill="white"/>
<path opacity="0.95" d="M12.8861 19.8613C14.8123 19.8613 16.6053 19.3076 18.1056 18.3551C16.8962 19.0394 15.5016 19.4295 14.0169 19.4295C9.388 19.4295 5.63553 15.6378 5.63553 10.9605C5.63553 9.57147 5.9665 8.2605 6.5531 7.10377C7.61221 4.40223 10.2212 2.4916 13.2719 2.4916C13.3922 2.4916 13.5117 2.49457 13.6305 2.50044C13.7586 2.49457 13.8874 2.4916 14.0169 2.4916C18.6458 2.4916 22.3983 6.28328 22.3983 10.9605C22.3983 11.2375 22.3851 11.5114 22.3594 11.7815C22.4114 11.3896 22.4382 10.9901 22.4382 10.5845C22.4382 5.461 18.1616 1.30762 12.8861 1.30762C7.61061 1.30762 3.33398 5.461 3.33398 10.5845C3.33398 15.7079 7.61061 19.8613 12.8861 19.8613Z" fill="white"/>
<path d="M22.3975 10.9611C22.3975 15.6384 18.645 19.4301 14.0161 19.4301C9.38723 19.4301 5.63477 15.6384 5.63477 10.9611C5.63477 9.57206 5.96573 8.26109 6.55233 7.10435C6.22634 7.93588 6.04718 8.84235 6.04718 9.79108C6.04718 13.8222 9.28146 17.09 13.2711 17.09C17.2608 17.09 20.4951 13.8222 20.4951 9.79108C20.4951 5.88152 17.4528 2.68988 13.6298 2.50103C13.7578 2.49515 13.8866 2.49219 14.0161 2.49219C18.645 2.49219 22.3975 6.28387 22.3975 10.9611Z" fill="white"/>
<path opacity="0.95" fill-rule="evenodd" clip-rule="evenodd" d="M17.4356 9.93025C17.4356 12.2535 15.5713 14.1369 13.2715 14.1369C10.9717 14.1369 9.10742 12.2535 9.10742 9.93025C9.10742 7.607 10.9717 5.72363 13.2715 5.72363C15.5713 5.72363 17.4356 7.607 17.4356 9.93025ZM15.4973 7.42576C15.9552 7.73282 15.9858 8.53842 15.5657 9.22511C15.1456 9.91179 14.4339 10.2195 13.976 9.91247C13.5181 9.6054 13.4875 8.79981 13.9076 8.11312C14.3277 7.42644 15.0395 7.11869 15.4973 7.42576Z" fill="white"/>
</g>
<defs>
<clipPath id="clip0_200_211593">
<rect width="24" height="24" fill="white" transform="translate(0.5 0.5)"/>
</clipPath>
</defs>
</svg>
