<svg width="20" height="20" viewBox="0 0 20 20" fill="none" xmlns="http://www.w3.org/2000/svg">
<g clip-path="url(#clip0_35_2662)">
<path d="M14.9091 1H5.09091C2.83156 1 1 2.83156 1 5.09091V14.9091C1 17.1684 2.83156 19 5.09091 19H14.9091C17.1684 19 19 17.1684 19 14.9091V5.09091C19 2.83156 17.1684 1 14.9091 1Z" fill="url(#paint0_linear_35_2662)"/>
<path d="M3.70982 5.58345C4.60246 3.85381 7.09219 2.97017 8.75555 3.72781C10.7257 4.62454 11.1406 7.02836 9.55164 8.63363C9.01573 9.17445 8.34155 9.58681 7.70419 10.0164C6.91301 10.5506 6.19055 11.1291 5.80273 12.0397C5.13837 13.5959 5.70455 15.4753 7.12573 16.3884C7.2501 16.4685 7.37937 16.5422 7.5201 16.6273C6.70355 16.7304 5.43701 16.2509 4.73992 15.5841C3.3261 14.2341 3.03155 12.0864 4.09192 10.4189C4.51246 9.75699 5.10646 9.20636 5.53601 8.54936C5.85673 8.05845 6.18728 7.49472 6.25355 6.93263C6.37792 5.88536 5.31264 5.15226 4.21792 5.42308C4.07392 5.45908 3.93401 5.51226 3.70982 5.58345ZM10.8198 9.04436C11.5398 8.64672 12.1682 8.30636 12.79 7.9529C13.1197 7.76554 13.2515 7.48408 13.2858 7.0889C13.3226 6.67572 13.4969 6.27563 13.6115 5.86981L13.8176 5.85345C13.9453 6.08826 14.1204 6.30999 14.1875 6.56117C14.2881 6.93426 14.4812 7.13881 14.842 7.29754C15.9973 7.80154 16.552 8.73754 16.651 9.9779C16.6837 10.3829 16.5103 10.6071 16.1323 10.6079C15.6856 10.6104 15.1848 10.6578 14.8011 10.4819C13.5329 9.89854 12.3277 9.16627 10.819 9.04436H10.8198ZM6.82546 11.8875C7.5561 10.72 8.91182 10.3412 10.2962 10.8583C12.1396 11.5472 12.8285 13.0616 12.4169 15.6103C12.7262 15.6855 13.06 15.7215 13.3529 15.8508C13.6376 15.9768 13.8798 16.1985 14.1408 16.3785L14.0713 16.57L9.82737 16.7238C10.5416 16.2378 11.1021 15.6675 11.3369 14.8338C11.5758 13.987 11.413 13.2007 10.9319 12.4807C10.0974 11.2305 8.59601 11.0014 6.82464 11.8875H6.82546ZM10.4868 14.1334C10.4811 15.1905 9.6621 15.9899 8.58701 15.9858C7.52092 15.9825 6.70928 15.1684 6.71173 14.1081C6.71116 13.8564 6.76076 13.6071 6.85764 13.3747C6.95452 13.1424 7.09674 12.9317 7.27599 12.755C7.45523 12.5783 7.6679 12.439 7.90158 12.3454C8.13525 12.2518 8.38523 12.2058 8.63692 12.2099C9.66946 12.2263 10.4917 13.0813 10.486 14.1334H10.4868ZM8.62055 15.0326C9.11801 15.0204 9.54428 14.5744 9.53119 14.0811C9.5181 13.5894 9.06155 13.1533 8.57392 13.1688C8.08137 13.1844 7.65182 13.6368 7.66573 14.1285C7.67882 14.6293 8.11819 15.0449 8.62055 15.0326ZM9.0411 9.87481C10.4075 9.53936 11.7125 9.77663 12.9062 10.4524C13.8381 10.9802 14.7618 11.44 15.8484 11.5259C16.2215 11.5554 16.5348 11.7615 16.7222 12.2852C15.9277 11.9743 15.3206 12.3244 14.6849 12.5535C13.8463 12.8563 13.4454 12.7057 12.9152 11.9784C11.9579 10.6676 10.7004 9.90672 9.0411 9.87481Z" fill="white"/>
</g>
<defs>
<linearGradient id="paint0_linear_35_2662" x1="10" y1="1" x2="10" y2="19" gradientUnits="userSpaceOnUse">
<stop stop-color="#FF9E00"/>
<stop offset="1" stop-color="#FF6B00"/>
</linearGradient>
<clipPath id="clip0_35_2662">
<rect x="1" y="1" width="18" height="18" rx="9" fill="white"/>
</clipPath>
</defs>
</svg>
