<svg width="13" height="13" viewBox="0 0 13 13" fill="none" xmlns="http://www.w3.org/2000/svg">
<path fill-rule="evenodd" clip-rule="evenodd" d="M5.22631 1.0258C5.08032 0.991981 4.92861 0.991403 4.78237 1.02411C4.63613 1.05681 4.49911 1.12197 4.38143 1.21475C4.26376 1.30754 4.16845 1.42558 4.10253 1.56016C4.03662 1.69473 4.00179 1.8424 4.00063 1.99225C3.99946 2.1421 4.03199 2.29029 4.0958 2.42588C4.21339 2.67573 4.10617 2.97361 3.85632 3.0912C3.72014 3.15529 3.56969 3.1526 3.44195 3.09643C3.35705 3.08648 3.27358 3.05462 3.20031 2.99958C3.01153 2.85779 2.77866 2.78736 2.54293 2.80077C2.30721 2.81417 2.08383 2.91056 1.91234 3.07285C1.74085 3.23514 1.63232 3.45287 1.60595 3.6875C1.57958 3.92213 1.63708 4.15852 1.76827 4.35483C1.86595 4.501 1.87642 4.67996 1.81188 4.83031C1.78499 4.91671 1.73433 4.99686 1.66069 5.06023C1.42155 5.26602 1.23742 5.52812 1.12492 5.82287C1.01241 6.11762 0.975073 6.43574 1.01627 6.74854C1.05747 7.06133 1.1759 7.35894 1.36089 7.6145C1.47052 7.76597 1.60148 7.89984 1.74915 8.01226C1.96375 7.75922 2.23058 7.55558 2.53135 7.41535C2.83466 7.27393 3.16519 7.2004 3.49986 7.1999C3.776 7.19949 4.00019 7.42302 4.0006 7.69916C4.00101 7.9753 3.77749 8.19949 3.50135 8.1999C3.31219 8.20018 3.12536 8.24174 2.95392 8.32168C2.78248 8.40161 2.63054 8.518 2.50872 8.66271C2.3869 8.80743 2.29813 8.97698 2.2486 9.15954C2.19907 9.34211 2.18998 9.53328 2.22196 9.71972C2.25394 9.90616 2.32622 10.0834 2.43376 10.239C2.54129 10.3946 2.68149 10.5249 2.84458 10.6207C3.00766 10.7166 3.1897 10.7757 3.37798 10.7939C3.56626 10.8122 3.75625 10.7891 3.93469 10.7263C4.19519 10.6347 4.48065 10.7716 4.57228 11.0321C4.59764 11.1041 4.6055 11.1781 4.59808 11.2494C4.59975 11.266 4.60061 11.2829 4.60061 11.3C4.60061 11.4856 4.67436 11.6637 4.80564 11.795C4.93692 11.9262 5.11497 12 5.30063 12C5.48629 12 5.66434 11.9262 5.79562 11.795C5.9269 11.6637 6.00066 11.4856 6.00066 11.3V1.99987C6.00061 1.85007 5.96691 1.70204 5.90204 1.56701C5.83716 1.43193 5.74274 1.31317 5.62578 1.21949C5.50882 1.12581 5.3723 1.05962 5.22631 1.0258ZM6.50076 0.677256C6.42472 0.59103 6.34118 0.511266 6.25091 0.438973C6.01699 0.25162 5.74396 0.119233 5.45199 0.0515972C5.16002 -0.0160386 4.85659 -0.017194 4.56411 0.0482166C4.27164 0.113627 3.9976 0.243931 3.76226 0.429498C3.52692 0.615064 3.33629 0.851147 3.20447 1.1203C3.09373 1.34638 3.02687 1.59094 3.00692 1.84104C2.83698 1.8057 2.66196 1.79238 2.48615 1.80238C2.0147 1.8292 1.56795 2.02196 1.22498 2.34653C0.882011 2.67111 0.664944 3.10657 0.612207 3.57582C0.574548 3.91091 0.622422 4.2478 0.748416 4.55601C0.508474 4.82153 0.319024 5.12997 0.190662 5.46626C0.0189441 5.91614 -0.0380473 6.4017 0.0248309 6.87911C0.0877091 7.35653 0.268478 7.81077 0.550822 8.20084C0.751486 8.47808 0.998968 8.71669 1.28112 8.90653C1.19558 9.22686 1.18029 9.56193 1.23635 9.88878C1.29293 10.2186 1.42081 10.5322 1.61107 10.8075C1.80132 11.0828 2.04937 11.3133 2.33789 11.4829C2.62642 11.6524 2.94848 11.757 3.28159 11.7893C3.41235 11.8019 3.54358 11.8033 3.67386 11.7936C3.75431 12.0587 3.89908 12.3026 4.09853 12.5021C4.41735 12.8209 4.84976 13 5.30063 13C5.75058 13 6.18213 12.8216 6.50076 12.504C6.81938 12.8216 7.25094 13 7.70088 13C8.15175 13 8.58416 12.8209 8.90298 12.5021C9.10243 12.3026 9.2472 12.0587 9.32765 11.7937C9.45786 11.8033 9.58903 11.8019 9.71973 11.7893C10.0528 11.757 10.3749 11.6524 10.6634 11.4829C10.952 11.3133 11.2 11.0828 11.3903 10.8075C11.5805 10.5322 11.7084 10.2186 11.765 9.88878C11.821 9.56196 11.8057 9.22693 11.7202 8.90664C12.0024 8.71678 12.25 8.47813 12.4507 8.20084C12.733 7.81077 12.9138 7.35653 12.9767 6.87911C13.0396 6.4017 12.9826 5.91614 12.8109 5.46626C12.6825 5.12997 12.493 4.82153 12.2531 4.55601C12.3791 4.2478 12.427 3.91091 12.3893 3.57582C12.3366 3.10657 12.1195 2.67111 11.7765 2.34653C11.4336 2.02196 10.9868 1.8292 10.5154 1.80238C10.3396 1.79238 10.1645 1.8057 9.99459 1.84105C9.97464 1.59095 9.90778 1.34638 9.79705 1.1203C9.66522 0.851147 9.47459 0.615064 9.23925 0.429498C9.00391 0.243931 8.72987 0.113627 8.4374 0.0482166C8.14493 -0.017194 7.84149 -0.0160386 7.54952 0.0515972C7.25755 0.119233 6.98452 0.25162 6.7506 0.438973C6.66033 0.511266 6.57679 0.59103 6.50076 0.677256ZM7.00066 1.9997C7.0007 1.8502 7.03448 1.7023 7.09947 1.56701C7.16436 1.43193 7.25877 1.31317 7.37573 1.21949C7.49269 1.12581 7.62921 1.05962 7.7752 1.0258C7.92119 0.991981 8.07291 0.991403 8.21915 1.02411C8.36539 1.05681 8.50241 1.12197 8.62008 1.21475C8.73775 1.30754 8.83307 1.42558 8.89898 1.56016C8.96489 1.69473 8.99972 1.8424 9.00089 1.99225C9.00205 2.1421 8.96953 2.29029 8.90571 2.42588C8.78812 2.67573 8.89534 2.97361 9.14519 3.0912C9.28137 3.15529 9.43182 3.1526 9.55956 3.09643C9.64446 3.08649 9.72793 3.05462 9.8012 2.99958C9.98998 2.85779 10.2229 2.78736 10.4586 2.80077C10.6943 2.81417 10.9177 2.91056 11.0892 3.07285C11.2607 3.23514 11.3692 3.45287 11.3956 3.6875C11.4219 3.92213 11.3644 4.15852 11.2332 4.35483C11.1356 4.501 11.1251 4.67996 11.1896 4.83031C11.2165 4.91671 11.2672 4.99686 11.3408 5.06023C11.58 5.26602 11.7641 5.52812 11.8766 5.82287C11.9891 6.11762 12.0264 6.43574 11.9852 6.74854C11.944 7.06133 11.8256 7.35894 11.6406 7.6145C11.531 7.76601 11.4 7.89991 11.2522 8.01234C11.0376 7.75927 10.7708 7.5556 10.47 7.41535C10.1667 7.27393 9.83613 7.2004 9.50146 7.1999C9.22532 7.19949 9.00113 7.42302 9.00072 7.69916C9.00031 7.9753 9.22383 8.19949 9.49997 8.1999C9.68913 8.20018 9.87596 8.24174 10.0474 8.32168C10.2188 8.40161 10.3708 8.518 10.4926 8.66271C10.6144 8.80742 10.7032 8.97698 10.7527 9.15954C10.8022 9.34211 10.8113 9.53328 10.7794 9.71972C10.7474 9.90616 10.6751 10.0834 10.5676 10.239C10.46 10.3946 10.3198 10.5249 10.1567 10.6207C9.99366 10.7166 9.81162 10.7757 9.62334 10.7939C9.43506 10.8122 9.24507 10.7891 9.06663 10.7263C8.80613 10.6347 8.52067 10.7716 8.42904 11.0321C8.40357 11.1044 8.39575 11.1788 8.40334 11.2503C8.40173 11.2667 8.4009 11.2832 8.4009 11.3C8.4009 11.4856 8.32715 11.6637 8.19587 11.795C8.06459 11.9262 7.88654 12 7.70088 12C7.51522 12 7.33717 11.9262 7.20589 11.795C7.07446 11.6635 7.00066 11.4854 7.00066 11.3V5.39721C7.38077 5.65765 7.8334 5.79985 8.30069 5.79985C8.57684 5.79985 8.80069 5.576 8.80069 5.29985C8.80069 5.02371 8.57684 4.79985 8.30069 4.79985C7.9559 4.79985 7.62523 4.66289 7.38143 4.41908C7.13762 4.17528 7.00066 3.84461 7.00066 3.49982V1.9997Z" fill="currentColor"/>
</svg>
