<svg width="16" height="16" viewBox="0 0 16 16" fill="none" xmlns="http://www.w3.org/2000/svg">
<path d="M7.99984 7.04594C7.99984 7.04594 8.58384 6.86594 9.0965 7.21594C9.7905 7.68928 9.99984 8.33328 9.99984 8.33328M8.99984 10.9999C8.99984 10.9999 8.30584 10.6619 7.26384 9.30728C6.01184 7.68061 4.8325 5.92461 2.3525 6.49861C2.3525 6.49861 2.33317 9.99861 5.6665 10.9999M13.8165 4.11128C13.5942 4.11257 13.3746 4.15979 13.1714 4.24996C12.9683 4.34013 12.7859 4.47131 12.6358 4.63528C12.4918 3.95328 12.0632 3.75261 11.5738 3.52528C11.2638 3.38128 11.1345 3.06128 11.0925 2.82994C11.0765 2.74128 11.0038 2.66994 10.9138 2.66994C10.8245 2.66994 10.7392 2.70661 10.6965 2.78528C10.6032 2.95194 10.4605 3.31861 10.4478 3.99194C10.4285 4.99394 11.2545 5.76661 11.6705 6.02728C11.6278 6.27394 11.4772 6.65528 11.4072 6.81528C10.9337 6.64101 10.5069 6.35943 10.1605 5.99261C9.52184 5.29728 9.00184 4.80528 8.32317 4.32394C7.6445 3.84261 8.0985 3.26861 8.38317 3.13194C8.66784 2.99528 8.45184 2.85528 7.74184 2.87928C7.17317 2.89861 6.36384 3.23261 6.0305 3.39728C5.6905 3.28928 4.9825 3.26794 4.67184 3.27061C1.6165 3.27061 0.666504 5.98728 0.666504 7.33394C0.666504 11.3913 3.91517 13.3339 6.2485 13.3339C8.88717 13.3339 9.81184 12.2579 9.81184 12.2579C9.92117 12.3253 10.3185 12.4686 11.0372 12.4993C11.9365 12.5373 12.2712 12.2833 12.2972 12.0879C12.3232 11.8926 12.1778 11.8213 12.0505 11.7613C11.9238 11.7019 11.7238 11.5879 11.3472 11.4646C11.0452 11.3666 10.9092 11.2593 10.8792 11.2179C12.6992 9.56995 13.0325 7.26128 12.9812 6.27994C14.3892 6.22528 14.9432 5.28794 15.1258 4.81328C15.3125 4.32928 15.4285 3.66928 15.2352 3.51994C15.0805 3.39994 14.9512 3.54394 14.9058 3.63128C14.6578 3.89528 14.4772 4.11128 13.8165 4.11128Z" stroke="#1F46C1" stroke-linecap="round" stroke-linejoin="round"/>
</svg>
