<svg width="16" height="16" viewBox="0 0 16 16" fill="none" xmlns="http://www.w3.org/2000/svg">
<path fill-rule="evenodd" clip-rule="evenodd" d="M7.45215 1.00391C7.46415 1.00591 7.47668 1.00799 7.48828 1.00879C7.61709 1.01782 7.74427 1.0417 7.8623 1.09082C7.8965 1.10522 7.92951 1.12495 7.96191 1.14355L7.99219 1.16113L8.01953 1.1748C8.036 1.18279 8.05269 1.19171 8.06836 1.20117C8.11516 1.23297 8.1576 1.27117 8.2002 1.30957L8.22168 1.32715L8.25098 1.35156L11.748 4.84863C11.9731 5.07362 12.0995 5.37903 12.0996 5.69727V8.33301C11.8155 8.20889 11.5142 8.11696 11.2002 8.06152V5.7998H8.5C8.18174 5.7998 7.87641 5.67329 7.65137 5.44824C7.42645 5.22322 7.2998 4.91778 7.2998 4.59961V1.90039H3.7002C3.62063 1.90039 3.54454 1.93202 3.48828 1.98828C3.43202 2.04454 3.40039 2.12063 3.40039 2.2002V11.7998C3.40039 11.8794 3.43202 11.9555 3.48828 12.0117C3.54454 12.068 3.62063 12.0996 3.7002 12.0996H6.50195C6.50954 12.4098 6.55165 12.7112 6.62598 13H3.7002C3.38194 13 3.07661 12.8735 2.85156 12.6484C2.62652 12.4234 2.5 12.1181 2.5 11.7998V2.2002C2.5 1.88194 2.62652 1.57661 2.85156 1.35156C3.07661 1.12652 3.38194 1 3.7002 1H7.40332C7.41998 1.0004 7.43628 1.00154 7.45215 1.00391ZM8.2002 4.59961C8.2002 4.67917 8.23182 4.75624 8.28809 4.8125C8.34432 4.86858 8.42057 4.90039 8.5 4.90039H10.5264L8.2002 2.57227V4.59961Z" fill="#1F46C1"/>
<path d="M7.03613 10C6.87387 10.2804 6.74509 10.5823 6.6543 10.9004H5.34961C5.23059 10.9003 5.11649 10.8526 5.03223 10.7686C4.94788 10.6842 4.90044 10.5695 4.90039 10.4502C4.90039 10.3308 4.94784 10.2162 5.03223 10.1318C5.11651 10.0477 5.23049 10.0001 5.34961 10H7.03613Z" fill="#1F46C1"/>
<path d="M8.86523 8.34961C8.38449 8.56523 7.95431 8.87256 7.59668 9.25H5.34961C5.23049 9.2499 5.11651 9.20234 5.03223 9.11816C4.94784 9.03377 4.90039 8.91915 4.90039 8.7998C4.90044 8.68053 4.94788 8.56579 5.03223 8.48145C5.11649 8.39739 5.23059 8.34971 5.34961 8.34961H8.86523Z" fill="#1F46C1"/>
<path d="M9.25 6.7002C9.36935 6.7002 9.48397 6.74764 9.56836 6.83203C9.65263 6.9164 9.7002 7.03114 9.7002 7.15039C9.70009 7.26946 9.65248 7.3835 9.56836 7.46777C9.48397 7.55217 9.36935 7.59961 9.25 7.59961H5.34961C5.2304 7.59951 5.11653 7.55207 5.03223 7.46777C4.94793 7.38347 4.90049 7.2696 4.90039 7.15039C4.90039 7.03104 4.94784 6.91642 5.03223 6.83203C5.11652 6.74779 5.23045 6.7003 5.34961 6.7002H9.25Z" fill="#1F46C1"/>
<path fill-rule="evenodd" clip-rule="evenodd" d="M10.2938 9C10.6607 9 11.0241 9.07237 11.3631 9.21278C11.702 9.35318 12.0101 9.55902 12.2695 9.81844C12.5289 10.0779 12.7348 10.3859 12.8751 10.7248C13.0155 11.0637 13.0879 11.4269 13.0879 11.7938C13.0879 12.1607 13.0156 12.5241 12.8751 12.8631C12.776 13.1025 12.6434 13.3259 12.4831 13.5282L13.4058 14.451C13.5314 14.5766 13.5314 14.7803 13.4058 14.9058C13.2803 15.0314 13.0766 15.0314 12.951 14.9058L12.0282 13.9831C11.8259 14.1434 11.6025 14.276 11.3631 14.3751C11.0241 14.5156 10.6607 14.5879 10.2938 14.5879C9.55285 14.5879 8.84236 14.2934 8.31844 13.7695C7.83053 13.2816 7.54164 12.6317 7.50419 11.9462C7.50162 11.9299 7.50001 11.913 7.5 11.896C7.5 11.8848 7.50056 11.8737 7.50168 11.8629C7.50111 11.8399 7.5 11.8168 7.5 11.7938C7.50004 11.0528 7.79452 10.3424 8.31844 9.81844C8.84236 9.29452 9.55282 9.00004 10.2938 9ZM10.2938 9.64336C9.72345 9.6434 9.17659 9.87004 8.77332 10.2733C8.42212 10.6245 8.20494 11.0846 8.15467 11.5743H8.68368L9.20055 10.8848L9.22693 10.8543C9.29186 10.7872 9.38335 10.7508 9.47783 10.7567C9.58589 10.7634 9.68333 10.8244 9.7371 10.9184L10.3126 11.9249L10.6326 11.4985L10.6569 11.4696C10.7172 11.4061 10.8016 11.3695 10.8902 11.3695H11.5034C11.681 11.3695 11.825 11.5136 11.8251 11.6911C11.8251 11.8688 11.6811 12.0128 11.5034 12.0128H11.051L10.5338 12.7027C10.4688 12.7893 10.3645 12.8375 10.2565 12.8308C10.1484 12.8241 10.051 12.7632 9.99721 12.6692L9.4217 11.6622L9.10212 12.089C9.04136 12.17 8.94575 12.2176 8.84452 12.2176H8.18566C8.26862 12.6302 8.47141 13.0127 8.77332 13.3146C9.17658 13.7178 9.72348 13.9445 10.2938 13.9446C10.5761 13.9446 10.8559 13.8888 11.1168 13.7808C11.37 13.6759 11.6003 13.5232 11.7962 13.3318C11.8016 13.3255 11.8074 13.3193 11.8134 13.3134C11.8193 13.3074 11.8255 13.3016 11.8318 13.2962C12.0232 13.1003 12.1759 12.87 12.2808 12.6168C12.3888 12.3559 12.4446 12.0761 12.4446 11.7938C12.4446 11.5115 12.3888 11.2319 12.2808 10.9711C12.1727 10.7102 12.0143 10.473 11.8146 10.2733C11.6149 10.0736 11.3777 9.91521 11.1168 9.80713C10.8559 9.69907 10.5762 9.64336 10.2938 9.64336Z" fill="#1F46C1"/>
</svg>
