<svg width="16" height="16" viewBox="0 0 16 16" fill="none" xmlns="http://www.w3.org/2000/svg">
<path fill-rule="evenodd" clip-rule="evenodd" d="M10.7863 2.5C10.8687 2.5001 10.9476 2.53431 11.0058 2.59489L13.9088 5.61434C13.9671 5.67495 13.9999 5.75773 14 5.84351V12.7454C13.9999 12.9455 13.9235 13.1374 13.7874 13.2789C13.6513 13.4203 13.4669 13.5 13.2745 13.5H5.80922C5.61683 13.4999 5.43233 13.4204 5.29628 13.2789C5.16023 13.1374 5.08376 12.9455 5.0837 12.7454V10.75H5.70595V12.7454C5.70601 12.7739 5.71668 12.8013 5.73607 12.8215C5.75545 12.8416 5.78182 12.8527 5.80922 12.8528H13.2745C13.3019 12.8528 13.3282 12.8415 13.3476 12.8215C13.367 12.8013 13.3785 12.7739 13.3786 12.7454V6.16667H10.7863C10.7038 6.16667 10.6244 6.13245 10.566 6.07178C10.5079 6.01121 10.4749 5.92908 10.4748 5.84351V3.14722H5.80922C5.78182 3.14729 5.75545 3.15839 5.73607 3.17855C5.71668 3.19871 5.70601 3.22613 5.70595 3.25464V5.25H5.0837V3.25464C5.08376 3.05452 5.16023 2.86262 5.29628 2.72111C5.43233 2.5796 5.61683 2.50007 5.80922 2.5H10.7863ZM11.097 5.51945H12.9388L11.097 3.60466V5.51945Z" fill="#1F46C1"/>
<path d="M6.40531 7.69085L4.16188 5.35739C4.02421 5.2142 3.80101 5.2142 3.66334 5.35739C3.52567 5.50059 3.52567 5.73275 3.66334 5.87594L5.30498 7.58345H2V8.31679H5.30498L3.66334 10.0243C3.52567 10.1675 3.52567 10.3997 3.66334 10.5428C3.80101 10.686 4.02421 10.686 4.16188 10.5428L6.40531 8.20939C6.54297 8.0662 6.54297 7.83404 6.40531 7.69085Z" fill="#1F46C1"/>
</svg>