<svg width="16" height="16" viewBox="0 0 16 16" fill="none" xmlns="http://www.w3.org/2000/svg">
<path fill-rule="evenodd" clip-rule="evenodd" d="M5.0963 5.47483C5.0963 6.22646 5.38629 6.91035 5.86048 7.42074C4.94506 7.97713 4.26046 8.8912 4.01498 9.99586L3.53222 12.1683C3.44237 12.5726 3.69731 12.9732 4.10166 13.0631C4.50601 13.1529 4.90665 12.898 4.9965 12.4936L5.47926 10.3213C5.73617 9.16516 6.75837 8.34123 7.94133 8.3344L7.9559 8.33443L7.97075 8.33439C9.15381 8.34112 10.1761 9.16508 10.4331 10.3213L10.9158 12.4936C11.0057 12.898 11.4063 13.1529 11.8107 13.0631C12.215 12.9732 12.47 12.5726 12.3801 12.1683L11.8973 9.99586C11.6518 8.89106 10.9671 7.97691 10.0515 7.42054C10.5256 6.91017 10.8155 6.22636 10.8155 5.47483C10.8155 3.89552 9.53522 2.61523 7.9559 2.61523C6.37659 2.61523 5.0963 3.89552 5.0963 5.47483ZM7.9559 4.11523C7.20502 4.11523 6.5963 4.72395 6.5963 5.47483C6.5963 6.22154 7.19827 6.82766 7.94339 6.83438L7.95616 6.83435L7.96878 6.83437C8.71373 6.82746 9.3155 6.22142 9.3155 5.47483C9.3155 4.72395 8.70679 4.11523 7.9559 4.11523Z" fill="#E3E3E3"/>
<path d="M10.7082 7.36944C10.7332 7.33472 10.7576 7.29951 10.7813 7.26382C10.9424 7.36732 11.1325 7.42672 11.334 7.42672C11.9005 7.42672 12.3759 6.95777 12.3759 6.35935C12.3759 5.76173 11.9019 5.29337 11.3366 5.29206C11.3211 4.85453 11.2217 4.43835 11.054 4.05914C11.1457 4.04786 11.2392 4.04206 11.3342 4.04206C12.6088 4.04206 13.6259 5.08855 13.6259 6.35935C13.6259 6.93445 13.4176 7.46363 13.0713 7.87066C13.9613 8.35738 14.6373 9.2097 14.889 10.2533L15.275 11.8538C15.356 12.1894 15.1496 12.527 14.814 12.608C14.4785 12.6889 14.1408 12.4825 14.0599 12.1469L13.6738 10.5464C13.4515 9.62456 12.7379 8.93834 11.8661 8.73721C11.5745 8.20302 11.1785 7.73908 10.7082 7.36944Z" fill="#E3E3E3"/>
<path d="M4.66749 4.04206C4.75448 4.04206 4.84028 4.04693 4.92464 4.05642C4.75616 4.43646 4.65631 4.8537 4.64082 5.2924C4.08627 5.30684 3.62578 5.77031 3.62578 6.35935C3.62578 6.95781 4.10118 7.42672 4.66755 7.42672C4.86205 7.42672 5.04581 7.37141 5.20327 7.27455C5.21728 7.29545 5.23151 7.3162 5.24597 7.33677C4.7493 7.7176 4.3331 8.2024 4.03167 8.76366C3.20736 8.99363 2.5412 9.66144 2.32774 10.5464L1.9417 12.1469C1.86077 12.4825 1.52314 12.6889 1.18758 12.608C0.852028 12.527 0.645617 12.1894 0.726551 11.8538L1.11259 10.2533C1.36431 9.20969 2.04028 8.35736 2.9303 7.87064C2.58409 7.4636 2.37578 6.93443 2.37578 6.35935C2.37578 5.08855 3.39287 4.04206 4.66749 4.04206Z" fill="#E3E3E3"/>
</svg>
