<svg width="16" height="16" viewBox="0 0 16 16" fill="none" xmlns="http://www.w3.org/2000/svg">
<rect width="16" height="16" rx="8" fill="#7E7885"/>
<path d="M8 1.25C9.88678 1.25022 11.416 2.78016 11.416 4.66699C11.4159 5.65581 10.9946 6.54519 10.3232 7.16895C11.5462 7.82751 12.4701 8.99398 12.7881 10.4238L13.3984 13.1699C13.4883 13.5742 13.2334 13.9755 12.8291 14.0654C12.4249 14.1553 12.0246 13.9002 11.9346 13.4961L11.3242 10.75C10.9779 9.19219 9.59583 8.0832 8 8.08301C6.40401 8.08301 5.02215 9.19208 4.67578 10.75L4.06543 13.4961C3.97544 13.9003 3.57416 14.1553 3.16992 14.0654C2.76575 13.9754 2.51075 13.5742 2.60059 13.1699L3.21094 10.4238C3.52882 8.99435 4.45212 7.82759 5.6748 7.16895C5.00359 6.54522 4.5831 5.65551 4.58301 4.66699C4.58301 2.78002 6.11303 1.25 8 1.25ZM8 2.75C6.94145 2.75 6.08301 3.60845 6.08301 4.66699C6.08318 5.72539 6.94156 6.58301 8 6.58301C9.05825 6.58279 9.91584 5.72525 9.91602 4.66699C9.91602 3.60858 9.05836 2.75022 8 2.75Z" fill="#E3E3E3"/>
</svg>
