<svg width="12" height="12" viewBox="0 0 12 12" fill="none" xmlns="http://www.w3.org/2000/svg">
<path d="M6 0C6.78793 -1.17411e-08 7.56815 0.155195 8.2961 0.456723C9.02405 0.758251 9.68549 1.20021 10.2426 1.75736C10.7998 2.31451 11.2417 2.97595 11.5433 3.7039C11.8448 4.43185 12 5.21207 12 6C12 6.78793 11.8448 7.56815 11.5433 8.2961C11.2417 9.02405 10.7998 9.68549 10.2426 10.2426C9.68549 10.7998 9.02405 11.2417 8.2961 11.5433C7.56815 11.8448 6.78793 12 6 12C4.4087 12 2.88258 11.3679 1.75736 10.2426C0.632141 9.11742 0 7.5913 0 6C0 4.4087 0.632141 2.88258 1.75736 1.75736C2.88258 0.632141 4.4087 2.37122e-08 6 0ZM6 1C4.67392 1 3.40215 1.52678 2.46447 2.46447C1.52678 3.40215 1 4.67392 1 6C1 7.32608 1.52678 8.59785 2.46447 9.53553C3.40215 10.4732 4.67392 11 6 11C7.32608 11 8.59785 10.4732 9.53553 9.53553C10.4732 8.59785 11 6 11 6C11 6 10.4732 3.40215 9.53553 2.46447C8.59785 1.52678 7.32608 1 6 1ZM6 8C6.19891 8 6.38968 8.07902 6.53033 8.21967C6.67098 8.36032 6.75 8.55109 6.75 8.75C6.75 8.94891 6.67098 9.13968 6.53033 9.28033C6.38968 9.42098 6.19891 9.5 6 9.5C5.80109 9.5 5.61032 9.42098 5.46967 9.28033C5.32902 9.13968 5.25 8.94891 5.25 8.75C5.25 8.55109 5.32902 8.36032 5.46967 8.21967C5.61032 8.07902 5.80109 8 6 8ZM6 2.5C6.11703 2.49996 6.23036 2.54097 6.32026 2.61589C6.41016 2.69081 6.47093 2.79489 6.492 2.91L6.5 3V6.5C6.50023 6.62495 6.45367 6.74545 6.36949 6.83778C6.28531 6.93012 6.16961 6.98759 6.04518 6.99888C5.92074 7.01017 5.79659 6.97446 5.69717 6.89878C5.59775 6.8231 5.53026 6.71295 5.508 6.59L5.5 6.5V3C5.5 2.86739 5.55268 2.74021 5.64645 2.64645C5.74021 2.55268 5.86739 2.5 6 2.5Z" fill="#F99500"/>
</svg>
